<svg version="1.1" id="Layer_1" xmlns="http://www.w3.org/2000/svg" xmlns:xlink="http://www.w3.org/1999/xlink" x="0px" y="0px"
	 width="100%" viewBox="0 0 320 199" enable-background="new 0 0 320 199" xml:space="preserve">
<path fill="none" opacity="1.000000" stroke="#000000" stroke-linecap="round" stroke-linejoin="round" stroke-width="6.000000"
	d="
M229.500000,42.500000 
	C225.346512,43.342121 224.244324,45.996742 224.439789,50.002937 
	C224.951675,60.494228 224.576569,71.061501 225.662781,81.483032 
	C226.792053,92.317863 226.640152,103.263618 228.837509,114.033157 
	C229.706009,118.289787 231.901840,120.462471 235.512222,120.898827 
	C245.290222,122.080582 255.121002,122.907867 264.999939,122.498268 
	C272.833618,122.173470 280.665039,121.637901 288.500610,121.572769 
	C293.255615,121.533226 297.840759,120.569168 302.692047,120.095947 
	C305.273254,110.880722 303.895325,101.644676 302.924530,92.508018 
	C301.351685,77.705406 296.979828,63.693134 291.290009,49.880543 
	C288.614441,43.385334 284.016876,42.666817 278.987549,42.113113 
	C266.876709,40.779785 254.699310,40.036034 242.499985,40.025242 
	C239.500122,40.022587 236.500000,40.333332 233.500000,40.500000 
"/>
<path fill="none" opacity="1.000000" stroke="#000000" stroke-linecap="round" stroke-linejoin="round" stroke-width="7.000000"
	d="
M286.500000,39.500000 
	C274.124451,36.669956 261.625946,34.320560 248.989777,33.388580 
	C237.869919,32.568436 226.666672,30.821589 215.513214,32.583668 
	C208.006912,33.769558 201.360413,37.665451 195.068954,41.609989 
	C178.502380,51.996696 162.376007,63.072815 146.500000,74.500000 
"/>
<path fill="none" opacity="1.000000" stroke="#000000" stroke-linecap="round" stroke-linejoin="round" stroke-width="6.000000"
	d="
M304.500000,126.500000 
	C299.810181,128.238770 296.707916,131.648697 294.407471,136.016205 
	C296.841614,138.542557 299.432129,137.351318 302.000061,136.499023 
	C308.471985,144.052368 306.455780,150.190643 297.011200,152.544922 
	C285.659882,155.374512 274.022980,156.068161 262.487427,157.390259 
	C252.378784,158.548843 242.185242,159.066544 232.010025,159.669327 
	C224.300797,160.126022 217.455795,157.920166 210.508804,155.474991 
	C207.622421,154.459061 204.815765,153.207214 202.004486,151.989624 
	C198.567368,150.500992 195.240051,150.564728 192.002533,152.504227 
	C190.653961,153.312103 189.382065,154.260620 187.990814,154.982285 
	C183.910995,157.098557 180.249771,156.223648 178.679535,151.934280 
	C177.819748,149.585632 175.536697,147.705643 176.267380,144.447830 
	C176.633316,142.816406 174.970993,140.913971 172.039032,140.310410 
	C164.861542,138.832901 157.809540,137.452194 150.500000,139.000000 
"/>
<path fill="none" opacity="1.000000" stroke="#000000" stroke-linecap="round" stroke-linejoin="round" stroke-width="5.000000"
	d="
M122.500000,66.000000 
	C121.666664,62.500000 121.521805,58.617264 119.838692,55.589672 
	C117.312103,51.044807 112.268623,49.136303 107.471611,48.136147 
	C101.098000,46.807266 94.636749,45.725998 87.998032,45.938660 
	C73.502838,46.402996 58.961720,45.209366 44.503330,47.026497 
	C39.764915,47.622032 34.942890,47.958191 30.500254,50.000549 
	C25.059067,52.501968 23.702484,55.034138 24.478580,61.002785 
	C24.627758,62.150055 24.500000,63.333332 24.500000,64.500000 
	C24.500000,80.833336 24.114353,97.179764 24.668676,113.494270 
	C24.931349,121.225006 24.746040,128.837067 24.079700,136.506927 
	C23.869471,138.926773 23.488285,141.086136 22.000000,143.000000 
"/>
<path fill="none" opacity="1.000000" stroke="#000000" stroke-linecap="round" stroke-linejoin="round" stroke-width="5.000000"
	d="
M23.000000,58.000000 
	C19.382168,59.205734 18.322147,62.405018 16.969326,65.486534 
	C14.231655,71.722511 13.402847,78.407593 13.131430,85.005409 
	C12.643827,96.858383 13.059574,108.705353 14.835924,120.524658 
	C15.603539,125.632118 16.160458,130.767197 17.540260,135.738831 
	C19.155884,141.560135 22.410141,146.788284 28.060553,148.832642 
	C38.393494,152.571182 48.882812,155.990189 59.992626,157.075485 
	C68.862503,157.941971 77.722664,158.315948 86.484978,156.906616 
	C96.141884,155.353394 106.050972,154.576569 115.000000,150.000000 
"/>
<path fill="none" opacity="1.000000" stroke="#000000" stroke-linecap="round" stroke-linejoin="round" stroke-width="6.000000"
	d="
M214.500000,112.500000 
	C213.075439,110.681870 212.706284,109.075447 213.254379,106.448746 
	C214.047241,102.648964 213.239090,98.495422 212.986526,94.500854 
	C212.204483,82.132294 212.274185,69.639908 209.416458,57.519695 
	C206.634827,45.722252 206.988434,47.705879 197.017090,50.559708 
	C186.762909,53.494484 177.914597,59.350883 168.992050,64.987411 
	C163.869278,68.223564 158.666672,71.333336 153.500000,74.500000 
"/>
<path fill="none" opacity="1.000000" stroke="#000000" stroke-linecap="round" stroke-linejoin="round" stroke-width="3.000000"
	d="
M214.500000,123.750000 
	C211.949722,125.174782 209.745239,125.529594 206.931137,123.600464 
	C201.330460,119.761086 195.175476,116.734375 189.540848,112.939346 
	C182.836365,108.423744 175.802124,109.236847 168.493088,110.458633 
	C156.358322,112.487099 144.389252,115.643784 132.000000,116.000000 
"/>
<path fill="none" opacity="1.000000" stroke="#000000" stroke-linecap="round" stroke-linejoin="round" stroke-width="3.000000"
	d="
M296.500000,141.500000 
	C280.944855,141.645432 265.486572,143.342651 249.985779,144.259460 
	C241.398422,144.767365 232.651428,142.963043 224.006226,141.946991 
	C219.470932,141.413925 215.000000,140.333328 210.500000,139.500000 
"/>
<path fill="none" opacity="1.000000" stroke="#000000" stroke-linecap="round" stroke-linejoin="round" stroke-width="6.000000"
	d="
M125.500000,137.000000 
	C122.604149,134.905640 122.133759,131.448639 121.139725,128.453629 
	C120.475754,126.453110 119.216446,124.886467 118.673592,122.986511 
	C117.665268,122.997200 117.087776,123.237350 116.461533,123.966988 
	C112.276894,128.842484 107.211678,130.914505 100.493607,130.703384 
	C93.188438,130.473801 85.845695,132.119354 78.497276,132.436966 
	C65.537170,132.997116 52.719646,131.465149 39.994858,129.026840 
	C36.263245,128.311783 33.379318,125.899010 30.041363,124.407433 
	C28.873466,123.885559 27.825357,123.129723 26.500000,123.000000 
"/>
<path fill="none" opacity="1.000000" stroke="#000000" stroke-linecap="round" stroke-linejoin="round" stroke-width="6.000000"
	d="
M123.500000,66.250000 
	C120.704597,66.399323 120.636230,68.639420 120.539490,70.502052 
	C119.639412,87.831917 118.833336,105.166664 118.000000,122.500000 
"/>
<path fill="none" opacity="1.000000" stroke="#000000" stroke-linecap="round" stroke-linejoin="round" stroke-width="3.000000"
	d="
M193.000000,151.500000 
	C192.157837,148.443954 191.169968,145.742615 193.341476,142.397110 
	C195.913132,138.435120 191.412125,123.488922 187.499985,120.500015 
	C183.434692,117.394066 178.517349,119.833717 177.069000,126.016167 
	C176.233475,129.582672 174.975433,133.182617 175.927353,137.018036 
	C176.102844,137.725067 175.333328,138.666672 175.000000,139.500000 
"/>
<path fill="none" opacity="1.000000" stroke="#000000" stroke-linecap="round" stroke-linejoin="round" stroke-width="5.000000"
	d="
M124.000000,67.000000 
	C127.687363,72.255989 127.655502,78.603065 128.902771,84.520493 
	C130.421539,91.726036 130.901871,99.114853 130.459381,106.497566 
	C130.302689,109.111969 131.531296,111.520294 131.426819,113.996910 
	C131.106094,121.598923 130.021393,129.083771 126.518883,136.009552 
	C126.048271,136.940125 125.732193,137.978683 125.516273,139.003433 
	C124.011963,146.142776 123.228081,147.077271 116.314911,149.566650 
	C112.006332,144.246841 110.487862,137.506073 107.500000,131.500000 
"/>
<path fill="none" opacity="1.000000" stroke="#000000" stroke-linecap="round" stroke-linejoin="round" stroke-width="3.000000"
	d="
M293.500000,113.500000 
	C282.280396,116.099960 270.865601,115.496933 259.500214,115.448143 
	C254.832199,115.428101 250.166672,114.833336 245.500000,114.500000 
"/>
<path fill="none" opacity="1.000000" stroke="#000000" stroke-linecap="round" stroke-linejoin="round" stroke-width="3.000000"
	d="
M52.000000,79.500000 
	C52.391434,76.907700 51.363037,74.650635 48.967358,74.159088 
	C47.106785,73.777336 45.003357,74.596024 43.450069,76.458359 
	C39.634621,81.032921 38.739201,91.516441 42.000000,96.500000 
	C46.511185,103.394562 53.085739,102.956261 57.000000,95.500000 
"/>
<path fill="none" opacity="1.000000" stroke="#000000" stroke-linecap="round" stroke-linejoin="round" stroke-width="4.000000"
	d="
M289.500000,128.500000 
	C276.833344,129.774277 264.166656,130.137238 251.500000,128.500000 
"/>
<path fill="none" opacity="1.000000" stroke="#000000" stroke-linecap="round" stroke-linejoin="round" stroke-width="5.000000"
	d="
M181.999985,58.500000 
	C182.333328,61.500000 182.962265,64.502838 182.933487,67.499359 
	C182.885468,72.497536 181.484650,78.368103 183.034531,82.288689 
	C184.982925,87.217278 188.239349,92.124336 190.996994,97.001694 
	C195.618927,105.176346 203.222733,108.110229 212.000000,109.000000 
"/>
<path fill="none" opacity="1.000000" stroke="#000000" stroke-linecap="round" stroke-linejoin="round" stroke-width="6.000000"
	d="
M254.000000,85.000000 
	C254.012085,83.967400 254.863281,83.574699 255.494293,82.993797 
	C257.682617,80.979286 259.640564,79.059059 258.580200,75.476257 
	C257.472229,71.732605 254.381287,70.988243 251.471268,70.093414 
	C249.796326,69.578377 247.803513,69.793877 246.007751,70.053612 
	C243.894913,70.359200 242.329407,71.225204 242.437149,74.002441 
	C242.650177,79.494171 242.500000,85.000000 242.500000,90.500000 
"/>
<path fill="none" opacity="1.000000" stroke="#000000" stroke-linecap="round" stroke-linejoin="round" stroke-width="4.000000"
	d="
M94.500000,74.500000 
	C95.987869,83.308403 93.572723,92.190453 94.831612,101.500000 
	C97.477982,101.500000 99.988991,101.500000 102.500000,101.500000 
"/>
<path fill="none" opacity="1.000000" stroke="#000000" stroke-linecap="round" stroke-linejoin="round" stroke-width="4.000000"
	d="
M248.500000,136.500000 
	C246.596664,131.737701 242.830872,129.439468 238.002350,128.488068 
	C235.821808,128.058426 233.687668,127.263298 231.493912,127.068703 
	C229.431732,126.885788 226.576248,124.996567 225.550003,128.514587 
	C224.417908,132.395386 225.964706,134.367081 229.989487,135.536179 
	C235.816208,137.228683 241.646057,136.554733 247.500000,136.000000 
"/>
<path fill="none" opacity="1.000000" stroke="#000000" stroke-linecap="round" stroke-linejoin="round" stroke-width="3.000000"
	d="
M182.000000,82.500000 
	C173.308426,84.504898 165.321762,88.470192 157.031540,91.583969 
	C156.204437,91.894623 155.527496,92.652069 154.500000,92.500000 
"/>
<path fill="none" opacity="1.000000" stroke="#000000" stroke-linecap="round" stroke-linejoin="round" stroke-width="3.000000"
	d="
M284.500000,135.500000 
	C275.833344,136.195770 267.166656,136.383255 258.500000,135.500000 
"/>
<path fill="none" opacity="1.000000" stroke="#000000" stroke-linecap="round" stroke-linejoin="round" stroke-width="4.000000"
	d="
M63.500000,76.500000 
	C63.690857,83.666107 63.096375,90.844765 63.950668,98.005882 
	C64.124763,99.465233 63.666668,101.000000 63.500004,102.500000 
"/>
<path fill="none" opacity="1.000000" stroke="#000000" stroke-linecap="round" stroke-linejoin="round" stroke-width="3.000000"
	d="
M80.500000,88.000000 
	C82.819710,86.335678 85.554245,85.187218 85.566071,81.500214 
	C85.580338,77.052795 84.383018,75.016434 81.000000,75.000008 
	C77.636093,74.983673 75.060478,77.450104 75.022713,81.000244 
	C74.946480,88.166092 75.000000,95.333336 75.000000,102.500000 
"/>
<path fill="none" opacity="1.000000" stroke="#000000" stroke-linecap="round" stroke-linejoin="round" stroke-width="7.000000"
	d="
M303.500000,58.500000 
	C307.639313,64.976364 305.692444,71.757042 304.500000,78.500000 
"/>
<path fill="none" opacity="1.000000" stroke="#000000" stroke-linecap="round" stroke-linejoin="round" stroke-width="5.000000"
	d="
M39.000000,130.000000 
	C38.139732,136.706772 34.654232,142.740402 34.000000,149.500000 
"/>
<path fill="none" opacity="1.000000" stroke="#000000" stroke-linecap="round" stroke-linejoin="round" stroke-width="3.000000"
	d="
M133.000000,123.500000 
	C133.333328,125.666664 133.689438,127.830223 133.986160,130.001892 
	C134.075577,130.656342 133.856689,131.878174 134.020691,131.921310 
	C140.097107,133.519562 140.142578,140.805649 144.824112,143.579041 
	C150.629715,140.970230 150.629715,140.970230 148.750000,136.500000 
"/>
<path fill="none" opacity="1.000000" stroke="#000000" stroke-linecap="round" stroke-linejoin="round" stroke-width="4.000000"
	d="
M157.000000,140.000000 
	C162.363159,144.456909 169.119507,145.231781 175.500000,147.000000 
"/>
<path fill="none" opacity="1.000000" stroke="#000000" stroke-linecap="round" stroke-linejoin="round" stroke-width="3.000000"
	d="
M181.500000,125.500000 
	C181.888748,124.610840 182.096115,123.209114 183.490784,124.509888 
	C187.555939,128.301407 187.796814,133.504272 188.464050,138.504791 
	C188.701935,140.287491 188.189255,142.226562 190.000000,143.500000 
"/>
<path fill="none" opacity="1.000000" stroke="#000000" stroke-linecap="round" stroke-linejoin="round" stroke-width="2.000000"
	d="
M135.500000,91.500000 
	C135.483673,97.871521 135.712799,104.262413 134.000000,110.500000 
"/>
<path fill="none" opacity="1.000000" stroke="#000000" stroke-linecap="round" stroke-linejoin="round" stroke-width="3.000000"
	d="
M43.500000,53.500000 
	C42.000000,53.666668 40.502113,53.953178 38.999641,53.979668 
	C31.712566,54.108162 30.110998,56.111557 31.500000,63.500000 
"/>
<path fill="none" opacity="1.000000" stroke="#000000" stroke-linecap="round" stroke-linejoin="round" stroke-width="3.000000"
	d="
M110.000000,114.500000 
	C109.478333,120.685471 104.891823,123.913017 96.500000,124.000000 
"/>
<path fill="none" opacity="1.000000" stroke="#000000" stroke-linecap="round" stroke-linejoin="round" stroke-width="3.000000"
	d="
M76.000000,87.500000 
	C79.136635,87.041298 80.997322,88.058411 81.561607,91.489868 
	C82.186127,95.287590 83.309624,98.999969 85.000000,102.500000 
"/>
<path fill="none" opacity="1.000000" stroke="#000000" stroke-linecap="round" stroke-linejoin="round" stroke-width="2.000000"
	d="
M167.500000,67.000000 
	C168.263229,71.468155 168.552170,75.971443 168.500000,80.500000 
"/>
<path fill="none" opacity="1.000000" stroke="#000000" stroke-linecap="round" stroke-linejoin="round" stroke-width="5.000000"
	d="
M266.500000,69.000000 
	C268.714111,69.649017 270.350189,70.666801 271.640015,72.919846 
	C273.062439,75.404541 274.963440,77.828621 277.500000,79.500000 
"/>
<path fill="none" opacity="1.000000" stroke="#000000" stroke-linecap="round" stroke-linejoin="round" stroke-width="5.000000"
	d="
M277.000000,81.500000 
	C274.494659,83.400177 272.469452,85.864349 271.131805,88.565277 
	C270.040253,90.769356 268.399658,91.347183 266.500000,92.000000 
"/>
<path fill="none" opacity="1.000000" stroke="#000000" stroke-linecap="round" stroke-linejoin="round" stroke-width="2.000000"
	d="
M175.000000,134.500000 
	C170.833328,133.833328 166.666672,133.166656 162.500000,132.500000 
"/>
<path fill="none" opacity="1.000000" stroke="#000000" stroke-linecap="round" stroke-linejoin="round" stroke-width="5.000000"
	d="
M287.500000,69.000000 
	C282.219391,71.140053 280.884888,76.711494 276.886353,80.596703 
	C280.764740,83.950058 282.094238,88.983490 286.500000,91.500000 
"/>
<path fill="none" opacity="1.000000" stroke="#000000" stroke-linecap="round" stroke-linejoin="round" stroke-width="2.000000"
	d="
M144.000000,123.000000 
	C141.511795,124.695534 141.335892,127.404205 141.026962,130.003204 
	C140.842911,131.551590 141.319199,133.219086 140.000000,134.500000 
"/>
<path fill="none" opacity="1.000000" stroke="#000000" stroke-linecap="round" stroke-linejoin="round" stroke-width="2.000000"
	d="
M157.500000,73.500000 
	C159.214111,77.041145 158.241745,80.826508 158.500000,84.500000 
"/>
<path fill="none" opacity="1.000000" stroke="#000000" stroke-linecap="round" stroke-linejoin="round" stroke-width="5.000000"
	d="
M258.500000,91.500000 
	C257.666656,90.833336 256.342926,90.320557 256.077789,89.475594 
	C254.008606,82.881577 249.112518,83.496613 244.000000,84.500000 
"/>
<path fill="none" opacity="1.000000" stroke="#000000" stroke-linecap="round" stroke-linejoin="round" stroke-width="2.000000"
	d="
M303.000000,57.500000 
	C300.794556,54.540096 297.877655,55.374771 295.000000,56.000000 
"/>
<path fill="none" opacity="1.000000" stroke="#000000" stroke-linecap="round" stroke-linejoin="round" stroke-width="4.000000"
	d="
M69.500000,75.000000 
	C65.207191,76.220245 60.832062,75.300323 56.500000,75.500000 
"/>
<path fill="none" opacity="1.000000" stroke="#000000" stroke-linecap="round" stroke-linejoin="round" stroke-width="2.000000"
	d="
M147.500000,130.500000 
	C147.666656,132.000000 147.833328,133.500000 148.000000,135.000000 
"/>
<path fill="none" opacity="1.000000" stroke="#000000" stroke-linecap="round" stroke-linejoin="round" stroke-width="2.000000"
	d="
M206.000000,53.000000 
	C205.158875,54.259613 203.033188,52.521881 202.500000,54.500000 
"/>
<path fill="none" opacity="1.000000" stroke="#000000" stroke-linecap="round" stroke-linejoin="round" stroke-width="2.000000"
	d="
M205.000000,83.000000 
	C205.333328,84.333336 205.666672,85.666664 206.000000,87.000000 
"/>
</svg>