<svg version="1.0" xmlns="http://www.w3.org/2000/svg" width="320px" height="199px" viewBox="0 0 320 199" preserveAspectRatio="xMidYMid meet">
 <g fill="#ffffff">
  
  <path d="M59.50 156 c-5.25 -0.45 -13.40 -2.20 -20.45 -4.30 l-4.20 -1.25 0.30 -2.85 c0.15 -1.55 1.25 -6 2.50 -9.85 l2.20 -7 1.95 0.05 c1.10 0 5.10 0.50 8.95 1.10 14.65 2.20 22.45 2.55 33.25 1.35 3.70 -0.40 10.45 -0.90 15 -1.05 l8.25 -0.35 1.20 2.95 c0.65 1.60 2.20 5.05 3.40 7.65 1.15 2.60 2.15 5.30 2.15 6.05 0 1.20 -0.35 1.50 -2.60 2.35 -10.40 3.95 -36.45 6.55 -51.90 5.15z" data-index="1" style="opacity: 1;"></path>
  <path d="M180.60 153.35 c-1.30 -1.55 -3.10 -6.25 -3.10 -8.15 0 -1.30 -0.35 -2.55 -1 -3.35 -0.80 -1.05 -1 -2 -1 -5.55 0 -4.85 1.20 -11.65 2.30 -12.85 0.40 -0.40 0.70 -1.05 0.70 -1.35 0 -0.35 0.45 -0.60 1 -0.60 0.65 0 1 -0.35 1 -0.95 0 -0.55 0.40 -1.10 0.90 -1.20 0.65 -0.20 0.55 -0.25 -0.25 -0.30 -0.95 -0.05 -1.15 -0.35 -1.15 -1.80 0 -1.65 0.10 -1.75 1.75 -1.75 1.65 0 1.75 0.10 1.75 1.70 0 1.55 0.15 1.70 1.90 2 3.30 0.50 5.25 3.30 7.35 10.55 1.65 5.70 1.75 12.25 0.25 13.75 -0.80 0.80 -0.95 1.55 -0.85 4.25 l0.10 3.30 -2 1.10 c-1.10 0.60 -2.05 1.25 -2.15 1.50 -0.30 0.65 -6.95 0.40 -7.50 -0.30z" data-index="2"></path>
  <path d="M26.75 147.50 c-4.15 -1.95 -4.45 -2.80 -2.80 -7.50 0.65 -1.80 1.10 -4.95 1.35 -8.90 l0.35 -6.10 1.85 0 c1.05 0 2.90 0.55 4.30 1.30 1.35 0.75 3.30 1.75 4.35 2.30 2.45 1.30 2.40 1.95 -0.40 11.20 -1.25 4.05 -2.25 7.65 -2.25 8.05 0 1 -4.40 0.80 -6.75 -0.35z" data-index="3"></path>
  <path d="M114.75 146.30 c-1.40 -2.10 -5.75 -12.95 -5.75 -14.30 0 -1.75 6.50 -6.10 8.75 -5.90 1.35 0.15 1.60 0.45 2.80 3.80 0.75 2.05 1.95 4.55 2.65 5.65 1.50 2.25 1.65 4.30 0.50 7.70 -0.65 1.80 -1.20 2.50 -2.25 2.95 -0.80 0.30 -1.45 0.70 -1.45 0.90 0 0.20 -1 0.40 -2.25 0.40 -1.80 0 -2.40 -0.25 -3 -1.20z" data-index="4" style="opacity: 1;"></path>
  <path d="M19.05 138.40 c-0.95 -3 -2.50 -11.65 -3.65 -19.95 -0.95 -6.95 -1.10 -10.60 -1.15 -23.95 0 -19.25 0.60 -23.45 4.60 -31.85 1.10 -2.45 1.35 -2.65 2.95 -2.65 l1.70 0 0 8.25 c0 7 -0.10 8.25 -0.75 8.25 -0.95 0 -1.05 3.30 -0.10 3.60 0.90 0.35 0.90 19.45 0 19.75 -0.90 0.30 -0.80 1.65 0.10 1.65 0.70 0 0.75 1.90 0.75 15.15 0 8.30 -0.15 16.95 -0.35 19.25 l-0.30 4.10 -1.65 0 c-1.40 0 -1.70 -0.25 -2.15 -1.60z" data-index="5"></path>
  <path d="M231 135.45 c-4.40 -0.75 -5 -1.40 -5 -5.30 l0 -3.30 3.40 0.25 c4.70 0.40 12.25 2.25 14.20 3.60 1.40 0.90 1.65 1.40 1.65 3.05 l0 2 -5.75 0.05 c-3.15 0.05 -7 -0.10 -8.50 -0.35z" data-index="6"></path>
  <path d="M123.50 132.05 c-0.25 -0.55 -0.50 -1.25 -0.50 -1.60 0 -0.30 -0.80 -2.35 -1.80 -4.50 l-1.75 -3.95 1 -21.40 c0.55 -11.75 1.15 -23.20 1.35 -25.45 l0.30 -4.15 1.65 0 c0.95 0 1.75 0.30 1.90 0.70 0.15 0.40 1 4.60 1.85 9.40 1.15 6.25 1.75 11.45 2.10 18.90 0.95 17.30 0.70 22.40 -1.45 30.15 -0.80 2.75 -0.90 2.85 -2.45 2.85 -1.15 0 -1.85 -0.30 -2.20 -0.95z" data-index="7" style="opacity: 1;"></path>
  <path d="M25.80 119.95 c-0.15 -0.85 -0.30 -3 -0.30 -4.75 l0 -3.20 1.70 0 c2.05 0 2.30 0.65 2.30 5.90 l0 3.60 -1.70 0 c-1.50 0 -1.70 -0.20 -2 -1.55z" data-index="8"></path>
  <path d="M246.50 120.50 c-7.70 -0.55 -12.95 -1.35 -14.35 -2.25 -2 -1.35 -2.65 -5.25 -4.35 -27.55 -0.70 -8.80 -1.40 -22.40 -1.60 -30.35 -0.35 -13.40 -0.30 -14.40 0.55 -15.35 0.50 -0.55 1.20 -1 1.60 -1 0.35 0 1.15 -0.50 1.80 -1.10 1.10 -1.15 1.15 -1.15 16.60 -1.10 15.10 0.05 30.30 0.95 36.65 2.25 4.10 0.80 5.50 2.50 8.55 10.45 6.95 17.85 10.60 36.65 10.50 53.75 -0.05 4.15 -0.20 8.15 -0.40 9 l-0.30 1.50 -7 0.60 c-13.15 1.15 -39.25 1.80 -48.25 1.15z m23.75 -30.70 c1 -1.10 2.55 -3.05 3.45 -4.30 1.30 -1.85 1.90 -2.30 3.35 -2.40 1.60 -0.15 1.90 0.05 3.20 1.95 1.90 2.90 5.80 7 6.30 6.65 0.25 -0.15 -0.35 -0.95 -1.30 -1.75 -2.95 -2.60 -6.25 -7.65 -6.25 -9.60 0 -2.10 3.15 -6.60 6.80 -9.75 1.35 -1.15 2.20 -2.10 1.90 -2.10 -1.20 0 -4.70 3.10 -6.70 5.95 -1.85 2.65 -2.35 3.05 -3.75 3.05 -1.75 0 -2.60 -0.80 -5.20 -4.65 -1.60 -2.35 -4.10 -4.35 -5.45 -4.35 -1 0 -0.20 0.90 1.65 1.90 2.25 1.15 7.25 8.15 7.25 10.15 0 0.85 -0.55 2.05 -1.30 2.95 -0.75 0.80 -2.05 2.55 -2.90 3.85 -0.85 1.30 -2.40 2.85 -3.45 3.40 -1 0.60 -1.75 1.20 -1.55 1.35 0.60 0.65 2.25 -0.30 3.95 -2.30z m-12.20 0.85 c-1.35 -0.90 -2.55 -3.25 -2.55 -4.90 0 -0.75 0.90 -2.35 2.25 -4.05 2.60 -3.20 2.85 -4.85 1.10 -7.95 -1.55 -2.75 -6.45 -5.20 -10.50 -5.30 -2.35 -0.05 -3.10 0.15 -4.60 1.30 -1 0.75 -2 1.90 -2.30 2.60 -0.75 1.95 -0.60 17.30 0.20 18.35 1.10 1.50 2.35 -0.20 2.35 -3.25 l0 -2.45 4.05 0 c4.60 0 5.60 0.40 6.75 2.65 1.05 2.10 3.25 4.40 3.80 4.05 0.25 -0.20 0 -0.65 -0.55 -1.05z" data-index="9" style="opacity: 1;"></path>
  <path d="M244 77.20 l0 -5.70 4.50 0 c4.45 0 7.15 0.75 8.10 2.20 0.55 0.85 0.45 6.30 -0.10 6.30 -0.25 0 -0.50 0.35 -0.50 0.75 0 1.55 -2.10 2.20 -7.15 2.20 l-4.85 0 0 -5.75z" data-index="10"></path>
  <path d="M131.50 105.80 c0 -1.45 0.15 -3.40 0.30 -4.25 0.30 -1.35 0.50 -1.55 2 -1.55 l1.70 0 0 4.25 0 4.25 -2 0 -2 0 0 -2.70z" data-index="11"></path>
  <path d="M203.90 106.55 c-3.65 -1.20 -6.90 -3.10 -9.20 -5.45 -2 -2.05 -5.95 -8.50 -9.20 -15.05 l-2.10 -4.20 0.15 -8.05 c0.10 -4.45 0 -9.90 -0.25 -12.20 l-0.45 -4.10 4.25 -2 c5.85 -2.75 13.65 -5.20 16.65 -5.20 2.30 -0.05 2.50 0.05 2.65 1.20 0.10 0.70 0.40 1.50 0.60 1.75 0.75 0.90 2.45 10.85 3 17.50 1.05 12.95 2 28.60 2 32.65 l0 4.10 -2.60 -0.05 c-1.45 0 -3.95 -0.40 -5.50 -0.90z" data-index="12" style="opacity: 1;"></path>
 </g>
 <g fill="#ececec">
  <path d="M70.40 160.15 c-0.50 -0.15 -0.90 -0.55 -0.90 -0.95 0 -0.55 1.05 -0.70 5.50 -0.70 4.55 0 5.50 0.15 5.50 0.75 0 0.40 -0.30 0.75 -0.60 0.80 -3.45 0.20 -8.85 0.25 -9.50 0.10z" data-index="13"></path>
  <path d="M62 155.45 c0 -0.95 0.20 -1.05 1.70 -0.80 1.10 0.15 1.85 0.05 2 -0.30 0.25 -0.45 0.35 -0.45 0.60 0.05 0.15 0.30 0.60 0.60 1 0.60 0.40 0 0.70 0.35 0.70 0.75 0 0.60 -0.65 0.75 -3 0.75 -2.75 0 -3 -0.10 -3 -1.05z" data-index="14"></path>
  <path d="M76 155.80 c0 -0.45 0.25 -0.80 0.55 -0.80 0.35 0 0.85 -0.35 1.20 -0.80 0.45 -0.65 0.80 -0.70 1.65 -0.25 1.15 0.60 4.10 0.75 4.10 0.20 0 -0.25 1.45 -0.40 3.25 -0.40 2.20 0 3.40 -0.20 3.70 -0.65 0.30 -0.50 0.95 -0.55 2.25 -0.35 1.25 0.25 1.80 0.20 1.80 -0.25 0 -0.40 0.45 -0.50 1.35 -0.30 0.75 0.20 1.45 0.15 1.65 -0.20 0.50 -0.85 3.50 0 3.50 1 0 0.70 -1.25 1 -8.10 2 -4.50 0.60 -10.10 1.25 -12.50 1.40 -3.85 0.20 -4.40 0.15 -4.40 -0.60z" data-index="15"></path>
  <path d="M57.50 154.95 c0 -0.60 0.20 -0.90 0.55 -0.65 0.30 0.15 0.75 0 1 -0.35 0.30 -0.50 0.45 -0.55 0.45 -0.05 0 0.30 0.35 0.60 0.75 0.60 0.40 0 0.75 0.35 0.75 0.75 0 0.50 -0.55 0.75 -1.75 0.75 -1.45 0 -1.75 -0.20 -1.75 -1.05z" data-index="16"></path>
  <path d="M52.40 155.15 c-1.85 -0.30 -1.90 -1.95 -0.15 -2.25 0.70 -0.15 1.25 -0.10 1.25 0.10 0 0.20 0.80 0.55 1.75 0.70 2.30 0.45 2.40 1.85 0.15 1.75 -0.90 -0.05 -2.25 -0.20 -3 -0.30z" data-index="17"></path>
  <path d="M181.50 152.95 c0 -1.05 0.20 -1.40 0.60 -1.10 0.35 0.20 1.50 0.40 2.55 0.45 1.55 0.10 1.85 -0.05 1.65 -0.65 -0.25 -0.55 -0.05 -0.70 0.60 -0.55 0.50 0.15 1.35 -0.05 1.85 -0.40 1.40 -1.05 1.85 -0.85 1.65 0.70 -0.10 1.05 -0.50 1.45 -1.75 1.85 -0.90 0.25 -1.65 0.65 -1.65 0.85 0 0.20 -1.25 0.40 -2.75 0.40 -2.75 0 -2.75 0 -2.75 -1.55z" data-index="18"></path>
  <path d="M115.50 146.15 c0 -1.70 0.05 -1.75 0.90 -1 1.20 1.10 2.30 1.10 1.90 0.05 -0.25 -0.65 -0.10 -0.75 0.75 -0.55 0.65 0.15 1.40 -0.10 2 -0.70 0.95 -0.95 0.95 -0.95 0.95 0.80 0 1.55 -0.15 1.80 -1.50 2.10 -0.80 0.15 -1.50 0.45 -1.50 0.70 0 0.25 -0.80 0.45 -1.75 0.45 -1.70 0 -1.75 -0.05 -1.75 -1.85z" data-index="19"></path>
  <path d="M168.15 144.85 c-2 -0.45 -2.15 -0.60 -2.15 -2.15 0 -1.65 0.05 -1.70 2.05 -1.70 1.10 0 3 0.25 4.25 0.55 2.05 0.55 2.20 0.70 2.20 2.25 0 1.65 -0.05 1.70 -2.10 1.65 -1.20 -0.05 -3.10 -0.30 -4.25 -0.60z" data-index="20"></path>
  <path d="M302.50 135.60 c0 -0.20 -0.90 -0.30 -2 -0.20 l-2 0.20 0 -2.10 c0 -1.65 0.20 -2.15 0.95 -2.35 0.55 -0.15 1.05 -0.65 1.20 -1.20 0.20 -0.70 0.70 -0.95 2.05 -0.95 1 0 1.80 0.15 1.80 0.40 0 0.20 -0.85 0.90 -1.85 1.60 -1.35 0.90 -1.60 1.30 -1 1.40 0.45 0.10 0.85 0.35 0.85 0.60 0 0.25 0.40 0.55 0.90 0.70 0.45 0.15 1.15 0.75 1.50 1.30 0.55 0.90 0.50 1 -0.90 1 -0.80 0 -1.50 -0.15 -1.50 -0.40z" data-index="21"></path>
  <path d="M21.60 132.15 c-0.05 -1.05 -0.30 -1.95 -0.60 -2.05 -0.80 -0.30 -0.60 -1.10 0.25 -1.10 0.40 0 0.75 -0.35 0.75 -0.75 0 -0.40 0.35 -0.75 0.75 -0.75 0.60 0 0.75 0.70 0.75 3.25 0 2.80 -0.10 3.25 -0.90 3.25 -0.75 0 -0.95 -0.40 -1 -1.85z" data-index="22"></path>
  <path d="M99.40 133.65 c-0.50 -0.10 -0.90 -0.55 -0.90 -0.95 0 -0.50 0.70 -0.70 2.75 -0.70 2.10 0 2.75 0.15 2.75 0.75 0 0.40 -0.30 0.75 -0.60 0.80 -0.35 0 -1.20 0.10 -1.90 0.20 -0.70 0.05 -1.65 0.05 -2.10 -0.10z" data-index="23"></path>
  <path d="M17.30 131.65 c-0.50 -3.15 -0.35 -4.65 0.40 -4.65 0.45 0 0.90 0.95 1.25 2.50 0.75 3.50 0.70 4 -0.40 4 -0.70 0 -1 -0.50 -1.25 -1.85z" data-index="24"></path>
  <path d="M146.85 131.75 c-0.35 -2.10 0 -3.25 0.95 -3.25 0.40 0 0.70 -0.35 0.70 -0.75 0 -0.40 0.35 -0.75 0.75 -0.75 0.40 0 0.75 0.40 0.75 0.90 0 0.50 0.25 1.15 0.55 1.45 0.30 0.30 0.45 1.30 0.35 2.20 -0.15 1.55 -0.30 1.70 -1.95 1.85 -1.75 0.15 -1.80 0.05 -2.10 -1.65z" data-index="25"></path>
  <path d="M192.80 132.40 c-0.15 -0.65 -0.30 -2 -0.30 -3 0 -1.80 0.05 -1.90 1.70 -1.90 1.95 0 2.30 0.55 2.30 3.80 0 2.15 0 2.20 -1.70 2.20 -1.30 0 -1.75 -0.25 -2 -1.10z" data-index="26"></path>
  <path d="M71 131.50 c0 -0.30 -1.30 -0.50 -2.85 -0.50 -6.85 0 -26 -2.45 -30.40 -3.85 -1.35 -0.45 -2.95 -1.10 -3.50 -1.45 -0.55 -0.40 -1.35 -0.70 -1.80 -0.70 -0.45 0 -0.95 -0.30 -1.10 -0.65 -0.15 -0.40 -1.50 -1.25 -3 -1.90 l-2.70 -1.20 -0.25 -10.25 c-0.15 -5.65 -0.25 -18.80 -0.15 -29.25 0.05 -10.45 -0.15 -20.90 -0.40 -23.20 -0.45 -3.75 -0.40 -4.20 0.40 -4.65 0.45 -0.30 1.20 -0.95 1.65 -1.45 0.45 -0.50 1.10 -0.95 1.45 -0.95 0.35 0 0.65 -0.20 0.65 -0.50 0 -0.25 0.40 -0.50 0.90 -0.50 0.50 0 1.10 -0.20 1.35 -0.45 0.30 -0.25 3.90 -0.95 8 -1.55 4.15 -0.60 7.60 -1.25 7.75 -1.45 0.15 -0.15 12.20 -0.15 26.75 0 28.05 0.30 31.85 0.60 38.65 2.95 4.05 1.40 6.70 4.30 8.05 8.85 1.25 4.10 1.30 5.90 0.35 7.75 -1.30 2.45 -2.10 11.35 -2.85 31.90 -0.30 7.30 -0.70 15.65 -0.85 18.60 -0.35 5.25 -0.40 5.40 -2.10 7.15 -3.35 3.50 -5.20 4.10 -16.20 5 -4.85 0.40 -8.60 0.95 -8.80 1.25 -0.20 0.35 -2.20 0.50 -5.75 0.40 -4 -0.10 -5.45 0 -5.60 0.50 -0.30 0.75 -7.65 0.85 -7.65 0.10z m-43 -14 c0 -1.35 -0.20 -2.50 -0.40 -2.50 -0.40 0 -0.45 1 -0.20 4 0.20 2 0.60 0.95 0.60 -1.50z m36.05 -28.65 l-0.10 -12.70 2.65 -0.50 c2.45 -0.50 2.20 -0.50 -3.45 -0.60 -3.80 0 -6.15 0.15 -6.15 0.45 0 0.30 1.35 0.50 3 0.50 l3 0 0 7.40 c0 8.15 0.50 18.75 0.90 18.35 0.15 -0.10 0.20 -5.95 0.15 -12.90z m38.20 12.65 c0.20 -0.30 -1.10 -0.50 -3.55 -0.50 l-3.85 0 0.25 -11.10 c0.10 -6.15 0.10 -12.05 -0.10 -13.15 -0.15 -1.10 -0.45 3.20 -0.65 9.60 -0.40 11.20 -0.25 13.70 0.80 15.05 0.55 0.75 6.65 0.85 7.10 0.10z" data-index="27" style="opacity: 1;"></path>
  <path d="M177.50 124.55 c0 -1.20 0.40 -2.40 1.10 -3.30 0.80 -1.05 1.05 -1.95 0.95 -3.60 l-0.15 -2.20 1.95 0.15 c1.75 0.15 1.90 0.30 2.05 1.80 0.15 1.40 0.35 1.60 1.65 1.60 1.20 0 1.45 0.20 1.45 1.25 0 1.10 -0.15 1.15 -1.20 0.75 -1.55 -0.55 -3.30 -0.10 -2.95 0.80 0.15 0.40 0.55 0.70 0.90 0.70 0.30 0 1 0.45 1.50 1 0.90 1 0.85 1 -0.55 1 -0.85 0 -1.85 0.40 -2.35 1 -0.95 1.15 -1.85 0.95 -1.85 -0.40 -0.05 -0.70 -0.20 -0.65 -0.95 0.30 -1.30 1.50 -1.55 1.40 -1.55 -0.85z" data-index="28"></path>
  <path d="M301.50 123.30 c0 -1.30 0.25 -1.80 1 -2.05 0.55 -0.15 1 -0.55 1 -0.80 0 -0.25 0.45 -0.45 1 -0.45 0.65 0 1 0.35 1 1 0 0.55 -0.20 1 -0.50 1 -0.25 0 -0.50 0.35 -0.50 0.75 0 0.40 0.35 0.75 0.75 0.75 0.40 0 0.75 0.35 0.75 0.75 0 0.55 -0.60 0.75 -2.25 0.75 -2.25 0 -2.25 0 -2.25 -1.70z" data-index="29"></path>
  <path d="M249.50 120 c0 -0.80 0.35 -1 1.50 -1 0.85 0 1.50 -0.20 1.50 -0.50 0 -0.25 0.25 -0.50 0.50 -0.50 0.30 0 0.50 0.35 0.50 0.75 0 0.40 0.35 0.75 0.75 0.75 0.40 0 0.75 0.35 0.75 0.75 0 0.60 -0.65 0.75 -2.75 0.75 -2.40 0 -2.75 -0.10 -2.75 -1z" data-index="30"></path>
  <path d="M261 120.25 c0 -0.40 0.30 -0.75 0.70 -0.75 0.40 0 0.80 -0.25 0.90 -0.55 0.30 -0.85 5.40 0.45 5.40 1.35 0 0.55 -0.85 0.70 -3.50 0.70 -2.80 0 -3.50 -0.15 -3.50 -0.75z" data-index="31"></path>
  <path d="M239 119.95 c-6.65 -0.90 -6.50 -0.85 -6.50 -2.50 0 -1.45 0 -1.45 1.25 -0.65 0.70 0.45 1.60 0.70 2 0.50 0.40 -0.15 0.75 -0.05 0.75 0.25 0 0.35 0.80 0.50 2 0.35 1.10 -0.10 2 -0.05 2 0.15 0 0.60 4.25 0.80 4.95 0.25 0.55 -0.40 0.75 -0.40 0.90 0.10 0.15 0.30 0.55 0.60 0.95 0.60 0.40 0 0.70 0.35 0.70 0.75 0 0.85 -3.45 0.95 -9 0.20z" data-index="32"></path>
  <path d="M271.50 119.75 c0 -0.40 0.25 -0.75 0.55 -0.75 0.35 0 0.85 -0.35 1.20 -0.80 0.50 -0.75 0.75 -0.75 2.90 0 1.35 0.45 2.95 0.65 3.85 0.50 1.30 -0.30 1.50 -0.20 1.50 0.75 0 1 -0.25 1.05 -5 1.05 -4.10 0 -5 -0.15 -5 -0.75z" data-index="33"></path>
  <path d="M287 119.25 c0 -0.40 0.35 -0.75 0.75 -0.75 0.40 0 0.75 -0.20 0.75 -0.50 0 -0.25 1.05 -0.35 2.55 -0.15 1.70 0.20 2.65 0.10 2.90 -0.30 0.55 -0.90 3.55 -0.10 3.55 0.95 0 0.70 -0.60 0.90 -3.05 1.20 -5.25 0.50 -7.45 0.40 -7.45 -0.45z" data-index="34"></path>
  <path d="M252.90 116.65 c-0.50 -0.10 -0.90 -0.55 -0.90 -0.95 0 -0.40 -0.45 -0.70 -1 -0.70 -0.55 0 -1 0.30 -1 0.65 0 0.40 -0.45 0.65 -1.10 0.55 -0.65 -0.05 -1.45 -0.15 -1.75 -0.15 -0.35 -0.05 -0.65 -0.40 -0.65 -0.80 0 -0.45 -0.45 -0.75 -1.20 -0.75 -0.95 0 -1.20 -0.25 -1.10 -1.25 0.05 -0.95 0.35 -1.25 1.20 -1.25 0.60 0 1.10 0.25 1.10 0.50 0 0.30 0.30 0.50 0.70 0.50 0.40 0 0.85 0.40 0.95 0.90 0.20 0.80 0.25 0.80 0.30 -0.05 0.05 -0.65 0.40 -0.90 1.20 -0.80 0.60 0.10 1.40 0 1.75 -0.20 0.35 -0.25 0.60 -0.20 0.60 0.10 0 0.30 0.35 0.55 0.75 0.55 0.40 0 0.75 0.35 0.75 0.75 0 0.55 0.60 0.75 2.50 0.75 2.10 0 2.50 0.15 2.50 0.90 0 0.80 -0.40 0.95 -2.35 0.95 -1.35 0.05 -2.80 -0.05 -3.25 -0.20z" data-index="35"></path>
  <path d="M271.75 116.50 c0.40 -0.65 4.25 -0.65 5.25 0 0.55 0.35 -0.20 0.50 -2.40 0.50 -2 0 -3.05 -0.20 -2.85 -0.50z" data-index="36"></path>
  <path d="M278 115.95 c0 -0.75 0.40 -0.95 2 -0.95 1.45 0 2 -0.20 2 -0.75 0 -0.40 0.35 -0.75 0.75 -0.75 0.40 0 0.75 -0.25 0.75 -0.50 0 -0.35 0.65 -0.40 1.75 -0.20 1 0.15 1.75 0.10 1.75 -0.15 0 -0.25 1.15 -0.45 2.50 -0.45 1.65 0.05 2.70 -0.20 2.95 -0.65 0.35 -0.55 0.65 -0.45 1.60 0.45 0.80 0.75 1 1.20 0.60 1.35 -0.35 0.15 -0.65 0.55 -0.65 0.90 0 0.65 -3.15 1.50 -7.10 1.90 -1.35 0.15 -1.90 0 -1.90 -0.45 0 -0.40 -0.35 -0.70 -0.75 -0.70 -0.40 0 -0.75 0.35 -0.75 0.75 0 0.40 -0.30 0.75 -0.60 0.80 -0.35 0 -1.60 0.10 -2.75 0.15 -1.80 0.15 -2.15 0.05 -2.15 -0.75z" data-index="37"></path>
  <path d="M120 109.25 c0 -2.30 0.15 -2.75 0.90 -2.75 0.95 0 1.20 1.10 0.80 3.90 -0.15 0.95 -0.55 1.60 -0.95 1.60 -0.55 0 -0.75 -0.70 -0.75 -2.75z" data-index="38"></path>
  <path d="M131.55 102 c-0.05 -6.35 0.05 -7.50 0.70 -7.50 0.40 0 0.75 0.35 0.75 0.75 0 0.40 0.35 0.75 0.75 0.75 0.40 0 0.75 -0.35 0.75 -0.75 0 -0.40 0.35 -0.75 0.75 -0.75 0.60 0 0.75 0.65 0.75 2.75 0 2.40 0.10 2.75 1 2.75 0.85 0 1 0.35 1 2.50 0 2.30 -0.10 2.50 -1.20 2.50 -1 0 -1.25 0.30 -1.50 2.25 -0.35 2.15 -0.45 2.25 -2.05 2.25 l-1.70 0 0 -7.50z m2.30 2.15 c0.05 -2.15 -0.05 -2.55 -0.35 -1.65 -0.55 1.65 -0.60 4.50 -0.10 4.50 0.20 0 0.40 -1.30 0.45 -2.85z" data-index="39"></path>
  <path d="M22 103.75 c0 -0.40 -0.35 -0.75 -0.75 -0.75 -0.55 0 -0.75 -0.60 -0.75 -2.25 0 -1.25 0.20 -2.25 0.45 -2.25 0.25 0 0.60 -0.80 0.75 -1.75 0.20 -1.05 0.65 -1.75 1.05 -1.75 0.60 0 0.75 0.95 0.75 4.75 0 3.90 -0.15 4.75 -0.75 4.75 -0.40 0 -0.75 -0.35 -0.75 -0.75z" data-index="40"></path>
  <path d="M14 100.75 c0 -2.50 0.15 -3.25 0.75 -3.25 0.90 0 1.45 2.85 1 4.95 -0.20 0.85 -0.65 1.55 -1.05 1.55 -0.55 0 -0.70 -0.80 -0.70 -3.25z" data-index="41"></path>
  <path d="M187.80 101.20 c-0.15 -0.45 -0.30 -1.45 -0.30 -2.25 0 -1.45 0.10 -1.50 1.90 -1.35 1.80 0.15 1.85 0.20 2 2.30 0.15 2.10 0.15 2.10 -1.55 2.10 -1.15 0 -1.85 -0.30 -2.05 -0.80z" data-index="42"></path>
  <path d="M128 96.80 c0 -0.40 -0.40 -0.85 -0.85 -0.95 -0.70 -0.20 -0.75 -0.25 -0.10 -0.30 0.55 -0.05 0.70 -0.45 0.55 -1.55 -0.20 -1.25 -0.05 -1.50 0.85 -1.50 0.95 0 1.05 0.30 1.05 2.50 0 1.90 -0.20 2.50 -0.75 2.50 -0.40 0 -0.75 -0.30 -0.75 -0.70z" data-index="43"></path>
  
  <path d="M152.50 90.75 c0 -1.25 0.20 -1.75 0.80 -1.75 0.45 0 0.90 0.45 1.05 1.05 0.15 0.60 0.55 0.90 0.95 0.75 0.45 -0.15 0.70 0.10 0.70 0.70 0 0.80 -0.35 1 -1.75 1 -1.65 0 -1.75 -0.10 -1.75 -1.75z" data-index="45"></path>
  <path d="M121 89.25 c0 -2.45 1.15 -3.20 1.65 -1.15 0.40 1.55 -0.10 3.40 -0.95 3.40 -0.50 0 -0.70 -0.65 -0.70 -2.25z" data-index="46"></path>
  <path d="M14 86.50 c0 -2.25 0.20 -3 0.70 -3 0.90 0 1.50 2.50 1.05 4.50 -0.20 0.85 -0.65 1.50 -1.05 1.50 -0.50 0 -0.70 -0.75 -0.70 -3z" data-index="47"></path>
  <path d="M204.70 84.75 c-0.15 -1.25 -0.20 -2.45 0 -2.60 0.60 -0.60 1.70 1.05 2.05 3 0.30 1.65 0.25 1.85 -0.65 1.85 -0.85 0 -1.10 -0.45 -1.40 -2.25z" data-index="48"></path>
  <path d="M21.70 83.50 c-0.20 -1.10 -0.50 -2 -0.75 -2 -0.25 0 -0.45 -1.45 -0.45 -3.25 0 -2.55 0.15 -3.25 0.75 -3.25 0.40 0 0.75 -0.35 0.75 -0.75 0 -0.40 0.35 -0.75 0.75 -0.75 0.65 0 0.75 1 0.75 6 0 5 -0.15 6 -0.75 6 -0.50 0 -0.85 -0.70 -1.05 -2z" data-index="49"></path>
  <path d="M209.50 84.75 c0 -0.40 -0.35 -0.75 -0.75 -0.75 -0.40 0 -0.75 -0.20 -0.75 -0.50 0 -0.25 0.25 -0.50 0.50 -0.50 0.30 0 0.50 -0.80 0.50 -1.75 0 -1.40 0.20 -1.75 1 -1.75 0.90 0 1 0.35 1 3 0 2.35 -0.15 3 -0.75 3 -0.40 0 -0.75 -0.35 -0.75 -0.75z" data-index="50"></path>
  <path d="M245.05 80.90 c0.10 -1.50 0.15 -1.75 0.30 -0.75 0.20 1.25 1.15 2 1.15 0.85 0 -0.25 0.80 -0.45 1.75 -0.40 0.95 0.05 1.75 0.25 1.75 0.50 0 0.80 2.40 0.40 3.55 -0.60 1.05 -0.85 1.10 -1.05 0.45 -1.50 -0.60 -0.40 -0.55 -0.50 0.45 -0.50 1.05 0 1.15 -0.20 0.95 -1.75 -0.20 -1.55 -0.05 -1.75 0.95 -1.75 1 0 1.15 0.25 1.15 2.05 0 2.50 -0.75 3.95 -2 3.95 -0.65 0 -1 0.35 -1 1 0 0.95 -0.35 1 -4.75 1 l-4.75 0 0.05 -2.10z" data-index="51"></path>
  <path d="M272.55 82.20 c0.50 -0.65 0.50 -0.85 -0.10 -1.30 -0.55 -0.35 -0.45 -0.45 0.45 -0.25 1.40 0.30 1.40 0.15 -0.20 -1.95 l-1.30 -1.70 1.45 0 c1.80 0 3.15 1.35 3.15 3.20 0 1.75 -1.05 2.80 -2.80 2.80 -1.15 0 -1.25 -0.10 -0.65 -0.80z" data-index="52"></path>
  <path d="M121.50 78.75 c0 -2.30 0.15 -2.75 0.90 -2.75 0.70 0 0.85 0.40 0.80 1.90 -0.10 3.30 -0.20 3.60 -0.95 3.60 -0.60 0 -0.75 -0.65 -0.75 -2.75z" data-index="53"></path>
  <path d="M125.30 78.90 c-0.50 -1.90 -0.35 -2.40 0.70 -2.40 0.80 0 1 0.35 1 1.75 0 2 -1.20 2.45 -1.70 0.65z" data-index="54"></path>
  <path d="M179.80 78.75 c-0.20 -0.70 -0.55 -1.25 -0.80 -1.25 -0.30 0 -0.50 -0.35 -0.50 -0.80 0 -0.50 0.30 -0.70 0.75 -0.50 0.40 0.15 0.70 0.10 0.70 -0.10 -0.20 -1.20 0.15 -2.10 0.80 -2.10 0.60 0 0.75 0.65 0.75 3 0 2.25 -0.20 3 -0.70 3 -0.40 0 -0.85 -0.55 -1 -1.25z" data-index="55"></path>
  <path d="M167.50 78.75 c0 -0.40 -0.35 -0.75 -0.75 -0.75 -0.40 0 -0.75 -0.25 -0.75 -0.55 0 -0.30 0.35 -0.40 0.80 -0.25 0.45 0.15 0.60 0.10 0.45 -0.20 -0.55 -0.85 0.25 -3.50 1.05 -3.50 0.50 0 0.70 0.75 0.70 3 0 2.35 -0.15 3 -0.75 3 -0.40 0 -0.75 -0.35 -0.75 -0.75z" data-index="56"></path>
  <path d="M226.50 72.75 c0 -2.10 0.15 -2.75 0.75 -2.75 0.75 0 0.85 0.20 0.85 2.50 0.05 2.40 -0.10 3 -0.85 3 -0.60 0 -0.75 -0.65 -0.75 -2.75z" data-index="57"></path>
  <path d="M183.50 71.75 c0 -2.40 0.10 -2.75 1 -2.75 0.80 0 1 0.35 1 1.65 0 2.35 -0.50 3.85 -1.30 3.85 -0.50 0 -0.70 -0.75 -0.70 -2.75z" data-index="58"></path>
  <path d="M180.15 69.65 c0 -0.75 -0.30 -1.45 -0.60 -1.55 -0.70 -0.25 -0.75 -2.60 -0.05 -2.60 0.30 0 0.50 -0.55 0.50 -1.25 0 -0.90 0.25 -1.25 1 -1.25 0.90 0 1 0.35 1 4 0 3.50 -0.10 4 -0.85 4 -0.60 0 -0.90 -0.45 -1 -1.35z" data-index="59"></path>
  <path d="M242 68.75 c0 -0.60 1.65 -1.70 2.60 -1.75 0.45 0 0.90 -0.25 1 -0.60 0.20 -0.50 0.65 -0.50 2.15 -0.05 1.40 0.45 2.10 0.45 2.60 0.05 0.45 -0.35 0.65 -0.35 0.65 0.05 0 0.30 0.35 0.55 0.75 0.55 0.40 0 0.75 0.35 0.75 0.75 0 0.55 -0.65 0.75 -2.60 0.75 -1.45 0 -3.85 0.15 -5.25 0.30 -1.45 0.20 -2.65 0.15 -2.65 -0.05z" data-index="60"></path>
  <path d="M264.90 66.75 c0.90 -1.80 1.60 -2.25 1.60 -1 0 0.40 0.35 0.75 0.75 0.75 1 0 0.95 1.30 -0.05 1.70 -0.45 0.15 -1.30 0.30 -2 0.30 l-1.20 0 0.90 -1.75z" data-index="61"></path>
  <path d="M284.50 68.25 c0 -0.60 2.70 -2.85 2.90 -2.35 0.10 0.35 0.50 0.60 0.85 0.60 0.40 0 0.95 0.45 1.25 1 0.50 0.95 0.40 1 -2.25 1 -1.50 0 -2.75 -0.10 -2.75 -0.25z" data-index="62"></path>
  <path d="M226 54 c0 -2.75 0.15 -3.50 0.75 -3.50 0.80 0 1.45 2.60 1.05 4.50 -0.10 0.70 -0.25 1.55 -0.25 1.90 -0.05 0.30 -0.40 0.60 -0.80 0.60 -0.60 0 -0.75 -0.70 -0.75 -3.50z" data-index="63"></path>
  <path d="M295.55 54.40 c0.05 -0.90 0.15 -1.25 0.30 -0.75 0.25 0.90 1.15 1.20 1.15 0.35 0 -0.25 0.55 -0.50 1.25 -0.50 0.70 0 1.25 0.25 1.25 0.50 0 0.30 0.35 0.50 0.75 0.50 0.40 0 0.75 0.35 0.75 0.75 0 0.60 -0.65 0.75 -2.75 0.75 l-2.75 0 0.05 -1.60z" data-index="64"></path>
  
  <path d="M42.50 45.35 c0 -0.50 0.35 -0.85 0.75 -0.85 0.40 0 0.75 -0.20 0.75 -0.45 0 -0.25 1.35 -0.35 3.05 -0.20 2 0.20 3.15 0.10 3.40 -0.25 0.20 -0.40 1.25 -0.45 2.95 -0.25 2.10 0.25 2.60 0.45 2.60 1.20 0 0.75 -0.40 0.95 -1.85 0.95 -1.05 0 -4.10 0.15 -6.75 0.35 -4.35 0.25 -4.90 0.20 -4.90 -0.50z" data-index="66"></path>
  
  <path d="M244.90 43.15 c-0.50 -0.10 -0.90 -0.55 -0.90 -0.95 0 -0.55 0.85 -0.70 4 -0.70 3.20 0 4 0.15 4 0.75 0 0.40 -0.15 0.75 -0.35 0.80 -3.75 0.25 -6.05 0.30 -6.75 0.10z" data-index="68"></path>
  <path d="M197 36.60 c0 -0.25 0.80 -0.85 1.75 -1.40 1 -0.50 1.65 -1.20 1.55 -1.50 -0.25 -0.70 3.40 -2.45 4.10 -2 0.30 0.15 1.10 0.10 1.80 -0.20 1.15 -0.40 1.30 -0.35 1.30 0.65 0 0.85 -0.65 1.35 -2.90 2.35 -1.55 0.65 -3.15 1.50 -3.50 1.85 -0.75 0.70 -4.10 0.90 -4.10 0.25z" data-index="69"></path>
  <path d="M276.15 35.65 c-2.20 -0.30 -2.30 -1.95 -0.15 -2.25 0.85 -0.15 1.50 0 1.50 0.25 0 0.25 0.55 0.35 1.25 0.25 0.70 -0.15 1.25 -0.05 1.25 0.15 0 0.25 0.35 0.45 0.75 0.45 0.40 0 0.75 0.35 0.75 0.75 0 0.75 -1.50 0.85 -5.35 0.40z" data-index="70"></path>
  <path d="M261.55 33 c-0.95 -0.25 -3.50 -0.55 -5.65 -0.75 -3.45 -0.30 -3.90 -0.45 -3.90 -1.35 0 -0.65 0.25 -0.90 0.70 -0.75 0.35 0.15 0.95 0 1.25 -0.30 0.40 -0.40 0.55 -0.40 0.55 0.10 0 0.45 0.65 0.60 2.25 0.45 1.25 -0.10 2.25 0 2.25 0.15 0 0.20 0.70 0.45 1.50 0.55 0.85 0.15 1.50 0 1.50 -0.30 0 -0.30 0.20 -0.25 0.45 0.15 0.30 0.45 1 0.60 2 0.45 0.85 -0.10 1.55 -0.05 1.55 0.20 0 0.20 0.35 0.40 0.75 0.40 0.40 0 0.75 0.35 0.75 0.75 0 0.85 -2.95 0.95 -5.95 0.25z" data-index="71"></path>
  
  <path d="M243.40 31.15 c-2.05 -0.20 -2.40 -0.35 -2.40 -1.25 0 -0.80 0.25 -0.95 1.25 -0.80 0.70 0.15 1.25 0.05 1.25 -0.30 0 -0.40 0.10 -0.40 0.40 0 0.50 0.80 5 1.20 5.30 0.50 0.15 -0.35 0.25 -0.35 0.25 0.10 0.05 0.30 0.40 0.60 0.80 0.60 0.40 0 0.75 0.35 0.75 0.75 0 0.75 -1.65 0.85 -7.60 0.40z" data-index="73"></path>
  <path d="M235 29.45 c0 -0.55 0.20 -0.85 0.50 -0.70 0.30 0.20 0.85 0.05 1.25 -0.25 0.55 -0.45 0.75 -0.45 0.75 -0.05 0 0.30 0.35 0.55 0.75 0.55 0.40 0 0.75 0.35 0.75 0.75 0 0.55 -0.55 0.75 -2 0.75 -1.70 0 -2 -0.15 -2 -1.05z" data-index="74"></path>
 </g>
 <g fill="#7fbfbf">
  <path d="M220.25 157.25 c-4.50 -1.15 -7.30 -2.10 -14.80 -5.05 -5.85 -2.30 -7.30 -2.70 -10.15 -2.70 l-3.30 0 0 -3 c0 -2.10 0.35 -3.70 1.05 -5.10 1 -2 1.05 -2.30 0.40 -6.50 -0.35 -2.40 -0.85 -4.40 -1.05 -4.40 -0.20 0 -0.40 -0.30 -0.40 -0.70 0 -0.35 -0.80 -2.25 -1.80 -4.25 -1.90 -3.80 -4.25 -6.05 -6.25 -6.05 -1.55 0 -4.80 2.20 -5.20 3.50 -0.15 0.55 -0.55 1 -0.80 1 -0.25 0 -0.45 0.70 -0.45 1.50 0 0.85 -0.20 1.50 -0.45 1.50 -0.55 0 -1.20 5.80 -1.10 9.45 l0.10 2.65 -2.90 -0.25 c-1.60 -0.10 -4.90 -0.60 -7.40 -1.10 -3.35 -0.65 -6 -0.80 -10.35 -0.55 l-5.85 0.25 -1.05 -1.45 c-0.55 -0.75 -1 -2.10 -1 -2.95 0 -0.85 -0.20 -1.55 -0.50 -1.55 -0.95 0 -0.50 -1.90 0.50 -2.15 0.75 -0.20 1 -0.70 1 -1.80 l0 -1.55 -2.85 0.30 c-1.60 0.20 -2.95 0.40 -3.05 0.45 -0.10 0.10 -0.40 1.50 -1.40 7.15 -0.20 0.85 -0.55 1.10 -1.90 1.10 -1 0 -2 -0.40 -2.55 -1 -0.50 -0.55 -1.25 -1.10 -1.75 -1.25 -0.65 -0.20 -1 -1.30 -1.45 -4.50 -0.45 -2.75 -0.90 -4.40 -1.40 -4.70 -0.70 -0.35 -0.70 -1.15 -0.15 -6.60 0.35 -3.40 0.80 -6.65 1 -7.20 1.15 -2.75 1.30 -3.95 1.80 -13.60 0.25 -4.40 0.45 -5.65 1 -5.65 0.40 0 0.70 0.30 0.70 0.65 0 1 2.35 0.95 4.40 -0.10 2.55 -1.25 4.20 -1.60 8.95 -1.80 3.75 -0.15 4.15 -0.10 4.15 0.75 0 1.80 2.05 1.45 9.90 -1.70 10.15 -4.10 15.70 -5.90 17.45 -5.70 1.45 0.15 1.35 0 7.95 12.35 2.65 4.90 7.15 9.25 11.95 11.55 2.20 1 5.50 2.15 7.35 2.50 3.05 0.55 3.45 0.80 4.40 2.35 0.95 1.60 2.55 2.10 2 0.60 -0.15 -0.40 -0.25 -3.75 -0.25 -7.45 0 -11.55 -1.65 -32.85 -3.25 -42.25 -1.65 -9.70 -3.55 -14.20 -6.25 -14.95 -0.55 -0.15 -4.15 0.80 -8.25 2.25 -4 1.40 -8.10 2.65 -9.10 2.80 l-1.90 0.25 0 -1.95 c0 -1.60 0.25 -2.10 1.15 -2.50 0.65 -0.30 3.45 -2.05 6.25 -3.85 5.75 -3.75 12.45 -7.20 16.90 -8.70 5.25 -1.80 12.05 -2.20 25.35 -1.50 l11.85 0.60 0 1.55 0 1.55 -6.60 0.65 c-6.40 0.60 -8.40 1.10 -8.40 2.05 0 0.30 -0.60 0.50 -1.35 0.50 -2.20 0 -5.50 1.90 -6.75 3.90 -1.05 1.75 -1.10 2.15 -1 13.55 0.15 15.35 2.40 46.20 3.85 53 1.70 8.15 3.70 10.05 11.50 11 12.45 1.50 19.35 1.70 33.75 1.10 12.80 -0.55 16.65 -0.80 28.65 -1.90 3.40 -0.30 4.35 0.20 2.50 1.30 -0.85 0.50 -0.85 0.50 0 0.55 1.70 0 0.90 1.75 -1.40 2.95 -2.40 1.25 -7 5.85 -8.25 8.25 -0.70 1.35 -0.65 1.45 0.60 2.50 0.85 0.65 1.40 1.65 1.55 2.80 l0.20 1.75 0.05 -1.60 0.10 -1.65 3 0 c2.65 0 3 0.10 3 1 0 0.55 0.35 1 0.75 1 0.60 0 0.75 0.70 0.75 3.50 0 2.50 -0.20 3.50 -0.65 3.50 -0.35 0 -0.85 0.50 -1.10 1.10 -0.85 1.85 -8.05 3.60 -22 5.35 -27.30 3.35 -53.80 4.80 -60 3.30z m23.70 -20.60 l4.55 -0.30 -0.80 -1.30 c-3 -4.75 -6.05 -6.30 -16.40 -8.30 l-3.45 -0.65 -1.45 1.40 c-3.20 3.25 -0.45 7.10 6.35 8.80 3 0.75 5.10 0.80 11.20 0.35z m-93.80 -1.95 c-0.45 -0.75 -0.95 -1.05 -1.05 -0.75 -0.20 0.65 0.80 2.05 1.45 2.05 0.25 0 0.10 -0.60 -0.40 -1.30z m-1.10 -4.05 c-0.45 -0.80 -0.50 -0.75 -0.55 0.40 0 0.70 0.15 1.45 0.40 1.65 0.60 0.60 0.70 -1.10 0.15 -2.05z m45.75 -0.45 c-0.20 -0.70 -0.45 -1.20 -0.60 -1.05 -0.15 0.10 -0.10 0.85 0.10 1.55 0.15 0.75 0.45 1.25 0.55 1.10 0.15 -0.15 0.10 -0.85 -0.05 -1.60z m86.90 -0.75 c8.85 -0.75 10.25 -1.60 1.80 -1.10 -8 0.50 -19.70 0.50 -26.70 0 -6.65 -0.45 -6.55 0.20 0.10 0.95 6.60 0.75 16.40 0.80 24.80 0.15z" data-index="75" style="opacity: 1;"></path>
  <path d="M132.65 102.25 c0 -1.10 0.10 -1.50 0.20 -0.85 0.10 0.60 0.10 1.50 0 2 -0.15 0.45 -0.25 -0.05 -0.20 -1.15z" data-index="76"></path>
 </g>
 <g fill="#3f9f9f">
  <path d="M237.40 152.25 c-0.10 -0.10 -1.25 -0.25 -2.55 -0.40 -2.65 -0.30 -3.40 -0.70 -2.40 -1.30 0.60 -0.40 9.60 -0.20 10.90 0.20 0.30 0.10 0.65 0 0.75 -0.30 0.10 -0.25 3.40 -0.50 7.50 -0.60 4.10 -0.05 7.40 -0.30 7.40 -0.55 0 -0.20 0.60 -0.30 1.40 -0.15 1.50 0.30 5.10 -0.55 5.10 -1.25 0 -0.25 1.95 -0.45 4.40 -0.40 5.55 0 11.10 -0.30 12.25 -0.75 0.45 -0.20 1.30 -0.25 1.85 -0.10 0.55 0.15 1.10 0.05 1.25 -0.15 0.15 -0.20 1.45 -0.55 2.90 -0.75 4.80 -0.60 7.75 -1.30 8.35 -2.05 0.50 -0.60 0.40 -0.70 -0.80 -0.70 l-1.35 0 1.05 -1.15 c0.60 -0.65 1.10 -1.40 1.10 -1.70 0 -0.80 1.25 -1.15 4.05 -1.15 2.20 0 2.55 0.15 3.05 1.40 0.35 0.75 0.60 2.65 0.60 4.20 0 3.05 -1.05 4.90 -2.80 4.90 -0.50 0 -0.90 0.20 -0.90 0.50 0 0.60 -3.25 1.50 -5.35 1.50 -2.85 0 -1.95 -1.25 1.60 -2.25 4.80 -1.30 6.05 -3.25 1.40 -2.25 -3.25 0.70 -11.10 1.65 -17.90 2.20 -1.35 0.10 -4.05 0.35 -6 0.50 -3.50 0.30 -10.20 0.75 -15 1 -1.35 0.10 -3.45 0.50 -4.60 0.90 -1.55 0.55 -4.15 0.75 -9.60 0.80 -4.10 0 -7.55 -0.05 -7.65 -0.15z m65.10 -7.50 c0 -1.35 -0.35 -1.50 -1.50 -0.75 -0.65 0.45 -0.60 0.60 0.20 1.25 1.30 0.95 1.30 0.95 1.30 -0.50z m-1.55 -4.55 c0.10 -0.10 -0.50 -0.20 -1.35 -0.20 -0.90 0 -1.60 0.25 -1.60 0.50 0 0.45 2.35 0.20 2.95 -0.30z" data-index="77"></path>
  <path d="M217.75 148 c-2.15 -0.40 -7.20 -2.15 -8.60 -2.95 -0.75 -0.40 -0.50 -0.50 1.10 -0.55 1.10 0 2.70 0.45 3.55 0.95 0.85 0.50 2.55 1.10 3.75 1.30 3.20 0.50 4 0.75 3.70 1.30 -0.35 0.50 -0.60 0.50 -3.50 -0.05z" data-index="78"></path>
  <path d="M206.60 142.15 c0.20 -1.05 1.10 -2.15 1.85 -2.15 0.30 0 0.55 -0.35 0.55 -0.75 0 -0.40 0.55 -0.85 1.25 -1.05 1.15 -0.30 1.50 -0.75 1.30 -1.85 -0.15 -0.80 2.20 -2.30 4.05 -2.60 1.85 -0.35 4.70 -2.10 4.20 -2.60 -0.55 -0.60 1.30 -1.75 2.45 -1.50 1 0.15 1.25 0 1.25 -0.75 0 -0.55 0.25 -0.90 0.65 -0.80 0.35 0.15 0.65 1.40 0.75 3.45 0.10 2.80 0 3.10 -0.60 2.35 -0.85 -1.15 -1.65 -1.15 -2.30 0.10 -0.30 0.55 -1.10 1.15 -1.75 1.30 -0.70 0.15 -1.25 0.50 -1.25 0.75 0 0.20 -0.90 0.65 -1.95 0.95 -2.10 0.55 -3.20 2 -1.55 2 0.55 0 1 0.25 1 0.50 0 0.30 -0.65 0.50 -1.50 0.50 -1.05 0 -1.50 0.25 -1.50 0.80 0 0.65 -0.35 0.75 -1.90 0.45 -1.55 -0.25 -2.05 -0.10 -2.85 0.70 -1.10 1.30 -2.35 1.35 -2.15 0.20z" data-index="79"></path>
  <path d="M198.70 137.45 c-0.15 -0.30 0 -0.75 0.35 -1 0.40 -0.20 0.70 -1.15 0.70 -2.05 0 -1.95 1.90 -5.40 3 -5.40 0.40 0 0.75 -0.20 0.75 -0.50 0 -0.25 0.25 -0.50 0.50 -0.50 0.30 0 1 -0.45 1.60 -1 1.45 -1.35 2.25 -1.25 2.50 0.25 0.15 0.70 0.05 1.25 -0.20 1.25 -0.25 0 -0.35 0.20 -0.15 0.45 0.15 0.25 -0.20 0.60 -0.75 0.80 -0.55 0.15 -1 0.55 -1 0.80 0 0.25 -0.55 0.45 -1.25 0.45 -0.80 0 -1.25 0.30 -1.25 0.75 0 0.40 -0.25 0.75 -0.55 0.75 -0.25 0 -0.35 0.25 -0.20 0.50 0.15 0.30 0.10 0.50 -0.15 0.50 -0.25 0 -0.45 0.35 -0.45 0.75 0 0.45 0.30 0.70 0.70 0.55 0.35 -0.15 0.65 0.05 0.65 0.45 0 0.40 -0.25 0.75 -0.55 0.75 -0.30 0 -1.10 0.45 -1.80 1 -1.45 1.15 -1.95 1.25 -2.45 0.45z" data-index="80"></path>
  <path d="M155.35 136.65 c-0.65 -0.60 -0.35 -1.15 0.65 -1.15 0.85 0 0.90 -0.15 0.40 -1.20 -0.40 -1 -0.35 -1.40 0.30 -2.05 0.45 -0.45 0.80 -1 0.80 -1.25 0 -0.20 0.95 -0.55 2.15 -0.75 2.55 -0.40 5.35 -1.35 5.35 -1.80 0 -0.15 1.15 -0.45 2.55 -0.60 2.60 -0.30 4.15 -1.10 3.65 -1.90 -0.15 -0.25 0 -0.45 0.30 -0.45 0.30 0 0.45 -0.20 0.30 -0.45 -0.15 -0.25 0.05 -0.60 0.50 -0.75 0.40 -0.15 0.60 -0.50 0.45 -0.80 -0.15 -0.25 0.05 -0.50 0.45 -0.50 0.45 0 0.80 -0.25 0.80 -0.55 0 -0.35 0.60 -0.50 1.45 -0.35 1.15 0.15 1.60 -0.05 2 -0.90 0.25 -0.65 0.95 -1.40 1.55 -1.70 0.90 -0.50 1 -0.40 1 1.05 0 1.10 -0.25 1.60 -1 1.80 -0.70 0.20 -1 0.70 -1 1.65 0 2.30 -1 4.50 -2.05 4.50 -0.60 0 -0.95 -0.35 -0.95 -1 0 -1.35 -0.95 -1.25 -2.70 0.25 -0.75 0.65 -2.50 1.55 -3.85 2 -2.30 0.80 -3.40 2.25 -1.70 2.25 0.40 0 0.75 0.35 0.75 0.80 0 0.70 -0.50 0.80 -3.35 0.60 -1.90 -0.15 -3.90 0 -4.50 0.25 -1.30 0.55 -1.55 1.85 -0.40 1.85 0.40 0 0.75 0.35 0.75 0.75 0 0.55 -0.55 0.75 -2.15 0.75 -1.20 0 -2.35 -0.15 -2.50 -0.35z" data-index="81"></path>
  <path d="M207.10 132.70 c0.50 -0.50 1.15 -0.70 1.70 -0.50 0.80 0.30 0.80 0.40 0.20 0.80 -0.40 0.30 -1.20 0.50 -1.75 0.50 -0.90 0 -0.90 -0.05 -0.15 -0.80z" data-index="82"></path>
  <path d="M213.25 129.50 c0.45 -0.75 3.25 -2.10 3.85 -1.90 0.30 0.10 -0.25 0.70 -1.30 1.30 -2 1.15 -3.05 1.40 -2.55 0.60z" data-index="83"></path>
  <path d="M207 125.25 l-1.25 -0.70 1.90 -0.05 c1.30 0 1.85 0.20 1.85 0.75 0 0.95 -0.85 0.95 -2.50 0z" data-index="84"></path>
  <path d="M219.50 125.50 c0 -0.25 0.25 -0.50 0.55 -0.50 0.25 0 0.35 -0.25 0.20 -0.50 -0.15 -0.30 0.05 -0.65 0.45 -0.80 0.45 -0.15 0.70 -0.50 0.55 -0.75 -0.15 -0.20 0.20 -0.65 0.75 -0.95 0.55 -0.30 0.90 -0.75 0.75 -0.95 -0.25 -0.45 3.10 -3.55 3.80 -3.55 0.25 0 0.30 -0.35 0.15 -0.75 -0.20 -0.50 0 -0.75 0.70 -0.75 1.05 0 1.60 0.90 1.60 2.55 0 0.60 0.35 0.95 1 0.95 0.55 0 1 0.25 1 0.50 0 0.30 0.35 0.50 0.75 0.50 0.45 0 0.75 0.45 0.75 1.25 0 1.50 -0.15 1.50 -2.10 0.40 -1.40 -0.85 -1.50 -0.85 -2.20 0.05 -0.90 1.30 -0.90 2.30 0.05 2.30 0.40 0 0.75 0.35 0.75 0.75 0 0.55 -0.55 0.75 -2.10 0.75 -1.85 -0.05 -2.05 -0.10 -1.30 -0.65 0.45 -0.35 0.90 -1.10 1 -1.60 0.05 -0.55 0.65 -1.50 1.25 -2.05 1.05 -1.05 1.05 -1.15 0.20 -1.90 -0.90 -0.85 -2.15 -1.10 -1.90 -0.40 0.05 0.20 -0.75 1.15 -1.75 2.05 -1.05 0.90 -1.80 1.80 -1.65 2 0.10 0.20 -0.45 0.90 -1.25 1.45 -1.65 1.20 -2 1.35 -2 0.60z" data-index="85"></path>
  <path d="M172.90 111.15 c-1.85 -0.50 -0.90 -1.50 1.75 -1.85 4 -0.45 4.35 -0.40 4.35 0.70 0 0.70 -0.35 1 -1.20 1 -0.65 0 -1.80 0.10 -2.60 0.20 -0.80 0.10 -1.85 0.10 -2.30 -0.05z" data-index="86"></path>
  <path d="M214.50 97.30 c0 -2.70 1.20 -3.55 1.70 -1.20 0.50 2.65 0.35 3.40 -0.70 3.40 -0.85 0 -1 -0.35 -1 -2.20z" data-index="87"></path>
  <path d="M217 96.75 c0 -0.20 0.90 -1.15 2 -2.10 1.70 -1.45 2 -2.05 2 -3.65 0 -1.90 0.95 -2.90 2.10 -2.15 0.35 0.20 0.45 -0.10 0.25 -0.80 -0.20 -0.85 -0.10 -1.05 0.55 -0.95 1.15 0.20 1.50 3.90 0.40 3.90 -0.45 0 -0.80 -0.35 -0.80 -0.75 0 -0.40 -0.45 -0.75 -1 -0.75 -0.85 0 -0.95 0.25 -0.70 1.20 0.35 1.55 -0.15 3.30 -1.05 3.30 -0.35 0 -0.75 0.15 -0.85 0.40 -0.30 0.65 -2.90 2.80 -2.90 2.35z" data-index="88"></path>
 </g>
 <g fill="#6d6d6d">
  <path d="M166.40 144.65 c-2.80 -0.75 -2.90 -0.80 -2.90 -2.45 0 -1.65 0.05 -1.70 2.15 -1.70 1.20 0 3.45 0.25 5.05 0.55 l2.85 0.60 -0.15 1.80 c-0.15 1.75 -0.25 1.80 -2.15 1.85 -1.10 0.05 -3.30 -0.25 -4.85 -0.65z m4.85 -1.40 c-1.10 -0.40 -2.45 -0.65 -3 -0.65 -0.55 0 0 0.30 1.25 0.65 2.95 0.85 4.35 0.85 1.75 0z" data-index="89"></path>
  <path d="M162.50 136.50 c0 -1.05 0.50 -1.20 2.40 -0.70 1.80 0.50 1.35 1.70 -0.65 1.70 -1.40 0 -1.75 -0.20 -1.75 -1z" data-index="90"></path>
  <path d="M192.50 130.75 c0 -2 1.20 -2.45 1.70 -0.60 0.50 1.85 0.35 2.35 -0.70 2.35 -0.80 0 -1 -0.35 -1 -1.75z" data-index="91"></path>
  <path d="M61.90 131.75 c-0.15 -0.15 -2.95 -0.45 -6.25 -0.70 -7.70 -0.60 -10.15 -1.30 -10.15 -2.90 0 -1.35 -0.15 -1.30 3.75 -0.65 8.35 1.40 12.50 1.70 24 1.75 6.90 0 12.60 -0.10 12.75 -0.30 0.15 -0.15 1.90 -0.45 3.90 -0.65 3.30 -0.30 3.60 -0.25 3.60 0.60 0 1.55 -1.90 2.05 -9.50 2.55 -7.85 0.55 -21.65 0.75 -22.10 0.30z m13.50 -1.60 c-0.50 -0.10 -1.40 -0.10 -2 0 -0.65 0.10 -0.25 0.20 0.85 0.20 1.10 0.05 1.60 -0.05 1.15 -0.20z" data-index="92" style="opacity: 1;"></path>
  <path d="M30.75 125.15 c-1.75 -0.45 -2.75 -1.70 -2.75 -3.50 l0 -1.65 2.50 1.25 c1.40 0.70 2.50 1.55 2.50 1.85 0 0.30 0.15 0.45 0.30 0.25 0.45 -0.40 3.20 1.05 3.20 1.65 0 0.50 -3.90 0.60 -5.75 0.15z" data-index="93"></path>
  <path d="M95.55 124.80 c-1.15 -1.40 -0.30 -2.15 2.90 -2.50 6 -0.70 9.10 -3 10.05 -7.55 0.20 -1.15 0.55 -1.50 1.50 -1.50 1.50 0 1.75 0.95 1 3.85 -0.80 2.90 -4.50 6.55 -7.55 7.30 -4.50 1.10 -7.20 1.25 -7.90 0.40z" data-index="94"></path>
  <path d="M170 110.50 c0 -0.80 0.35 -1 1.75 -1 2 0 2.45 1.20 0.65 1.70 -1.90 0.50 -2.40 0.35 -2.40 -0.70z" data-index="95"></path>
  <path d="M181.50 109.50 c0 -1.10 1.40 -1.35 3.05 -0.50 1.55 0.85 1.10 1.50 -1.05 1.50 -1.65 0 -2 -0.15 -2 -1z" data-index="96"></path>
  <path d="M205.40 110.15 c-1.65 -0.40 -1 -1.65 0.85 -1.65 1.40 0 1.75 0.20 1.75 1 0 1 -0.70 1.15 -2.60 0.65z" data-index="97"></path>
  <path d="M131.50 108.55 c0 -1.75 0.45 -3.05 1.05 -3.05 0.25 0 0.45 0.60 0.45 1.40 0 1.05 0.10 1.20 0.50 0.60 0.25 -0.40 0.50 -1.25 0.50 -1.85 0 -0.80 0.30 -1.15 1 -1.15 1.15 0 1.25 0.85 0.45 3.65 -0.45 1.70 -0.65 1.85 -2.20 1.85 -1.60 0 -1.75 -0.15 -1.75 -1.45z" data-index="98"></path>
  <path d="M62.15 103.90 c-0.20 -0.35 -0.40 -2.20 -0.40 -4.15 0 -1.90 -0.05 -7.70 -0.15 -12.85 l-0.10 -9.40 -2.90 0 c-2.95 0 -4.10 -0.55 -4.10 -2.05 0 -1.55 1.25 -1.85 8.70 -2 6.65 -0.20 7.50 -0.10 8 0.70 0.90 1.45 -0.25 2.55 -3.15 3.05 l-2.60 0.45 0.15 12.60 c0.10 10.10 0 12.75 -0.55 13.40 -0.80 1 -2.30 1.10 -2.90 0.25z" data-index="99"></path>
  <path d="M74.15 103.65 c-0.50 -0.15 -0.65 -3.10 -0.65 -12.30 0 -10.50 0.10 -12.35 0.90 -13.85 1.15 -2.30 3.75 -4 6.15 -4 4.20 0 5.90 1.70 6.30 6.40 0.30 3.40 -0.40 5.25 -2.90 7.30 l-1.55 1.35 0.80 3.35 c0.45 1.85 1.45 5.10 2.20 7.25 1.15 3.35 1.25 3.95 0.60 4.35 -0.40 0.25 -1 0.50 -1.30 0.50 -0.80 0 -2.85 -5 -3.95 -9.50 -1.15 -4.80 -1.50 -5.50 -3 -5.50 l-1.25 0 0 7.20 c0 6.10 -0.10 7.25 -0.80 7.50 -0.45 0.15 -0.80 0.30 -0.85 0.25 -0.05 0 -0.40 -0.15 -0.70 -0.30z m8.05 -18.85 c1.55 -1.40 1.80 -2 1.80 -3.85 0 -2.95 -1.10 -4.45 -3.15 -4.45 -3 0.05 -4.35 2 -4.35 6.45 0 3.20 -0.20 3.05 3.35 3.50 0.30 0 1.40 -0.70 2.35 -1.65z" data-index="100" style="opacity: 1;"></path>
  <path d="M93.45 102.65 c-0.55 -0.65 -0.70 -3.65 -0.65 -15.10 0.05 -12.65 0.15 -14.30 0.90 -14.80 1.30 -0.80 2.50 0.35 2.90 2.80 0.20 1.20 0.20 7.10 0.05 13.05 l-0.30 10.85 3.95 0.15 c3.70 0.15 3.95 0.25 4.10 1.30 0.30 2.15 -0.65 2.60 -5.65 2.60 -3.70 0 -4.75 -0.15 -5.30 -0.85z" data-index="101" style="opacity: 1;"></path>
  <path d="M47.55 102.65 c-2.40 -0.30 -7.20 -5.15 -8.15 -8.20 -1 -3.35 -0.85 -10.60 0.35 -14.15 1.05 -3.35 4.15 -7 6.40 -7.55 3.80 -0.95 6.85 1.20 7.25 5.15 0.25 2.65 -0.25 3.40 -1.90 2.85 -0.80 -0.25 -1 -0.75 -1 -2.30 0 -1.60 -0.25 -2.05 -1.25 -2.55 -3 -1.35 -6.15 2.10 -7.30 8 -1.15 6.05 0.20 11.45 3.55 14.30 3.10 2.60 7.70 1.30 9.80 -2.75 0.45 -0.85 1.15 -1.45 1.75 -1.45 2.45 0 1.40 3.05 -2.25 6.40 -1.25 1.15 -2.70 2.10 -3.25 2.10 -0.55 0 -1.25 0.10 -1.65 0.15 -0.35 0.10 -1.40 0.10 -2.35 0z" data-index="102"></path>
  <path d="M189.65 99.35 c-1.50 -2.15 -1.45 -2.45 0.25 -2.25 1.15 0.15 1.35 0.40 1.50 2.05 0.20 2.30 -0.30 2.35 -1.75 0.20z" data-index="103"></path>
  <path d="M214.50 98.75 c0 -2.45 1.15 -3.20 1.70 -1.10 0.60 2.20 0.35 3.35 -0.70 3.35 -0.85 0 -1 -0.35 -1 -2.25z" data-index="104"></path>
  <path d="M30.30 64.60 c-0.65 -1.05 -0.85 -5.60 -0.35 -7.45 0.85 -3.05 2.80 -4.10 8.85 -4.70 5.45 -0.55 6.20 -0.45 6.20 1.05 0 1.30 -0.30 1.40 -5.90 1.95 -6.15 0.55 -6.80 1.15 -6.45 5.35 0.20 2 0.10 3.25 -0.30 3.65 -0.65 0.65 -1.70 0.75 -2.05 0.15z" data-index="105"></path>
  <path d="M119.65 64.15 c0.20 -0.25 -0.15 -2 -0.70 -3.90 -0.80 -2.55 -1.60 -4 -3.30 -5.80 l-2.30 -2.45 2.05 0 c1.10 0 2.10 0.15 2.20 0.40 0.10 0.20 0.80 0.70 1.65 1.10 2.20 1.15 2.75 2.70 2.65 7 -0.15 3.50 -0.20 3.75 -1.35 3.90 -0.65 0.10 -1.05 0 -0.90 -0.25z" data-index="106"></path>
  <path d="M26.50 54.30 c0 -1.25 0.20 -1.80 0.75 -1.80 0.40 0 0.75 -0.30 0.75 -0.70 0 -0.75 2.60 -2.30 3.85 -2.30 0.35 0 1.20 -0.30 1.80 -0.70 1.60 -1.05 10.45 -2.30 16.05 -2.30 4.40 0 4.80 0.10 4.80 0.95 0 0.80 -0.45 1 -2.85 1.25 -2.40 0.25 -14.95 2 -17.65 2.50 -0.40 0.05 -1.25 0.35 -1.80 0.70 -0.60 0.30 -1.20 0.40 -1.40 0.25 -0.15 -0.15 -0.30 -0.05 -0.30 0.25 0 0.35 -0.30 0.60 -0.65 0.60 -0.35 0 -1.25 0.70 -2 1.55 l-1.35 1.55 0 -1.80z" data-index="107"></path>
  <path d="M185.10 51.15 c0.15 -1.85 0.20 -1.90 2.15 -2.05 1.80 -0.10 1.90 -0.05 1.15 0.55 -1.10 0.90 -1.15 1.40 -0.10 1 0.60 -0.20 0.75 0 0.60 0.90 -0.10 1 -0.50 1.25 -2.05 1.35 l-1.90 0.15 0.15 -1.90z" data-index="108"></path>
  <path d="M222 34.45 c0 -0.80 0.35 -0.95 2.25 -0.95 1.65 0 2.25 0.20 2.25 0.75 0 0.40 -0.30 0.80 -0.60 0.80 -3.50 0.40 -3.90 0.35 -3.90 -0.60z" data-index="109"></path>
 </g>
 <g fill="#006060">
  <path d="M247.15 144.65 c-1.20 -0.15 -1.65 -0.45 -1.65 -1.10 0 -0.80 0.75 -0.95 6.90 -1.25 3.75 -0.15 8.35 -0.45 10.25 -0.65 3.20 -0.30 3.35 -0.25 3.35 0.80 0 0.90 -0.30 1.05 -2.10 1.05 -1.20 0 -3.50 0.35 -5.15 0.75 -2.80 0.65 -7.95 0.85 -11.60 0.40z" data-index="110"></path>
  <path d="M290.35 142.70 c-0.20 -0.20 -0.35 -0.90 -0.35 -1.55 0 -1.05 0.20 -1.15 2.35 -1.15 l2.35 0 -1.70 -1.50 -1.75 -1.45 1.90 -0.05 c1 0 1.85 0.25 1.85 0.50 0 0.30 0.35 0.50 0.75 0.50 0.40 0 0.75 0.25 0.75 0.50 0 0.30 0.70 0.50 1.50 0.50 0.85 0 1.50 0.25 1.50 0.50 0 0.30 -0.30 0.50 -0.70 0.50 -0.45 0 -0.80 0.60 -0.90 1.40 -0.15 1.30 -0.25 1.35 -3.65 1.50 -1.95 0.05 -3.70 0 -3.90 -0.20z" data-index="111"></path>
  <path d="M239.50 137.25 c0 -1.15 0.20 -1.25 2.25 -1.25 2.05 0 2.25 0.10 2.25 1.25 0 1.15 -0.20 1.25 -2.25 1.25 -2.05 0 -2.25 -0.10 -2.25 -1.25z" data-index="112"></path>
  <path d="M161.70 132.95 c-0.60 -0.95 0.65 -1.60 2.50 -1.25 2.55 0.50 2.40 1.80 -0.15 1.80 -1.10 0 -2.15 -0.25 -2.35 -0.55z" data-index="113"></path>
  <path d="M253.50 127.80 c0 -0.45 -0.65 -0.80 -1.60 -0.95 -1.05 -0.10 -0.60 -0.20 1.20 -0.25 3.25 -0.10 4.40 0.20 4.40 1.20 0 0.50 -0.60 0.70 -2 0.70 -1.40 0 -2 -0.20 -2 -0.70z" data-index="114"></path>
  <path d="M251.40 125.15 c-1.25 -0.30 -1.10 -1.50 0.25 -1.85 2.30 -0.60 3.85 -0.35 3.85 0.65 0 0.60 0.40 1.05 1.15 1.20 0.60 0.10 -0.15 0.20 -1.65 0.20 -1.50 0.05 -3.15 -0.05 -3.60 -0.20z" data-index="115"></path>
  <path d="M201.90 122.10 c-1.60 -1 -2.90 -2 -2.90 -2.20 0 -0.55 2.45 -0.50 4.65 0.15 1.70 0.45 1.85 0.65 1.85 2.20 0 0.95 -0.15 1.75 -0.35 1.75 -0.25 0 -1.70 -0.85 -3.25 -1.90z" data-index="116"></path>
  <path d="M242.50 37.55 c0 -0.75 0.40 -1.05 1.90 -1.20 l1.85 -0.20 -1.85 -0.05 c-4 -0.20 -0.90 -1.60 3.50 -1.60 1.50 0 1.60 0.10 1.60 1.70 0 1.60 -0.10 1.70 -2.30 2 -3.90 0.50 -4.70 0.40 -4.70 -0.65z" data-index="117"></path>
 </g>
 <g fill="#004040">
  <path d="M242 157.10 c0 -1.25 0.75 -1.40 8.25 -1.85 2.75 -0.15 6.05 -0.40 7.40 -0.60 2.25 -0.25 2.35 -0.25 2.35 1 0 1.60 -0.80 1.80 -10.35 2.20 -7.55 0.30 -7.65 0.30 -7.65 -0.75z" data-index="118"></path>
  <path d="M208.75 154.80 c-3.20 -0.75 -3.75 -1.10 -3.75 -2.35 0 -0.80 -0.35 -0.95 -2.50 -0.95 -1.40 0 -2.60 -0.25 -2.85 -0.60 -0.25 -0.40 -1.65 -0.65 -3.80 -0.65 -3.90 0 -4.35 -0.35 -4.35 -3.60 0 -1.80 0.15 -2.15 1 -2.15 0.80 0 1 0.35 1 1.75 l0 1.75 3.30 0 c2.85 0 4.30 0.40 10.25 2.75 3.80 1.50 7.15 2.75 7.45 2.75 0.25 0 0.50 0.45 0.50 1 0 0.85 -0.30 1 -1.85 0.95 -1.05 0 -3.05 -0.30 -4.40 -0.65z" data-index="119"></path>
  <path d="M274 154.05 c0 -0.95 0.20 -1.05 6.90 -1.85 2.55 -0.30 2.60 -0.30 2.60 0.90 0 1.50 -1.35 1.90 -6.30 1.90 -2.80 0 -3.20 -0.10 -3.20 -0.95z" data-index="120"></path>
  <path d="M301.45 147.30 c1.40 -1.50 1.50 -4.25 0.30 -6.10 -0.75 -1.20 -1.05 -1.30 -3.10 -1 -1.25 0.15 -3.40 0.30 -4.75 0.30 -2.30 0 -2.40 0.05 -1.90 1.05 0.35 0.55 0.50 1.10 0.40 1.20 -0.10 0.05 -4.75 0.40 -10.40 0.70 -5.65 0.35 -14.65 0.95 -20 1.35 -13.10 0.95 -18.35 0.90 -28.60 -0.30 -10.10 -1.20 -21.90 -3.20 -23.35 -4 -1.10 -0.55 -1.40 -1.75 -0.60 -2.25 0.25 -0.15 4.35 0.40 9.15 1.20 8.20 1.40 18.90 2.70 26.65 3.25 1.95 0.15 4.55 0.40 5.85 0.60 1.35 0.20 3.40 0.05 4.75 -0.25 4.55 -1.15 26.15 -3 35.40 -3.05 l4 0 -1.90 -1.25 c-2.35 -1.60 -2.40 -3.05 -0.35 -6.30 2.85 -4.35 8.70 -8.95 11.50 -8.95 0.85 0 1 0.30 1 2.05 0 2.70 -0.70 3.90 -2.90 4.80 -0.95 0.40 -2.85 1.65 -4.15 2.75 l-2.40 2 1.65 1.70 c1.30 1.30 2.05 1.70 3.50 1.70 1.25 0 1.80 0.20 1.80 0.75 0 0.40 0.40 0.75 0.90 0.75 1.60 0 2.60 1.65 2.60 4.15 0 1.85 -0.25 2.45 -1.30 3.30 -0.80 0.60 -2.05 1.05 -3.10 1.05 l-1.75 0 1.10 -1.20z" data-index="121"></path>
  <path d="M170 139.50 c-0.40 -0.25 -1.55 -0.50 -2.50 -0.50 -3.10 0 -4 -0.50 -4 -1.95 l0 -1.35 3.65 0.55 c1.95 0.35 4.45 0.80 5.50 1 1.45 0.30 1.85 0.20 1.85 -0.40 0 -1.25 -1.10 -1.70 -6.50 -2.55 -2.90 -0.50 -5.30 -0.95 -5.40 -1.05 -0.10 -0.10 -0.05 -0.45 0.15 -0.80 0.30 -0.40 1.40 -0.50 4.20 -0.20 7.10 0.75 7.30 0.70 7.45 -1 0.30 -2.95 2.70 -9.60 3.95 -10.95 3.65 -3.95 9.20 -3.30 12.10 1.40 0.60 0.90 1.05 1.80 1.05 2 0 0.85 -2.30 0.10 -4.35 -1.45 -1.25 -0.95 -2.80 -1.75 -3.45 -1.75 -3.45 0 -6.35 6.25 -6.45 13.80 0 2.60 -0.30 4.40 -0.70 4.90 -0.75 0.90 -5.30 1.10 -6.55 0.30z" data-index="122"></path>
  <path d="M231.25 137.80 c-3.20 -0.80 -4.65 -1.55 -6.35 -3.40 -1.20 -1.25 -1.40 -1.90 -1.40 -4.20 0 -2.40 0.20 -3 1.45 -4.25 1.80 -1.80 2.60 -1.80 10.10 -0.25 8.35 1.75 11.60 3.60 14.40 8.30 1.15 1.95 1.35 3.25 0.45 3.80 -0.80 0.50 -7.40 0.60 -7.40 0.10 0 -0.20 -0.35 -0.40 -0.75 -0.40 -0.40 0 -0.75 0.25 -0.75 0.50 0 0.70 -6.65 0.55 -9.75 -0.20z m13.95 -2.70 c0.15 -0.25 -0.70 -1.40 -1.90 -2.55 -2.05 -2 -2.35 -2.15 -7.10 -2.80 -2.70 -0.40 -5.75 -0.85 -6.70 -1.05 -2.25 -0.35 -2.90 0.30 -3.10 3.30 l-0.15 2.25 4.25 0.55 c5.20 0.70 14.35 0.85 14.70 0.30z" data-index="123"></path>
  <path d="M261 137.20 c-3.60 -0.45 -4.05 -0.65 -3.90 -1.85 l0.15 -1.10 14.25 0 c14.15 0 14.25 0 14.40 1.05 0.10 0.65 -0.20 1.20 -0.75 1.45 -1 0.40 -21.40 0.80 -24.15 0.45z" data-index="124"></path>
  <path d="M137.40 136.10 c-0.35 -0.55 -1.60 -1.55 -2.75 -2.30 -2 -1.25 -2.15 -1.45 -2.15 -3.60 0 -1.35 -0.20 -2.15 -0.50 -1.95 -0.70 0.45 -0.65 -1.05 0.10 -2.25 0.55 -0.85 0.40 -1.20 -0.80 -2.45 -1.25 -1.30 -1.35 -1.70 -1.10 -3.90 1 -8.85 1.65 -10.65 3.65 -10.65 0.80 0 1.15 0.30 1.15 0.95 0 0.55 -0.20 1.15 -0.50 1.30 -0.25 0.15 -0.50 1 -0.50 1.80 l0 1.50 2.80 -0.35 2.80 -0.35 -0.20 1.45 c-0.15 1.40 -0.30 1.45 -3 1.60 l-2.80 0.15 -0.20 2.35 c-0.15 1.50 0 2.50 0.40 2.70 0.30 0.20 0.90 2.30 1.25 4.65 0.35 2.35 0.80 4.25 1 4.25 0.20 0 1.05 0.55 1.85 1.25 1.80 1.50 1.80 1.40 2.35 -3.60 0.30 -2.50 0.65 -3.45 2 -5 1.35 -1.50 1.80 -1.75 2.30 -1.30 0.50 0.50 0.45 0.80 -0.25 1.60 -1.25 1.35 -2.25 4.40 -2.30 6.80 0 1.10 -0.35 2.65 -0.75 3.45 -0.60 1.10 -0.60 1.60 -0.20 2.10 0.45 0.55 0.25 0.70 -1.20 0.70 -1.15 0 -2 -0.30 -2.45 -0.90z" data-index="125" style="opacity: 1;"></path>
  <path d="M255.40 130.80 c-2.70 -0.30 -5.15 -0.80 -5.45 -1.15 -0.35 -0.35 -0.45 -1.10 -0.25 -1.90 l0.35 -1.30 6.85 0.40 c8.80 0.50 16.95 0.50 26.45 0 l7.60 -0.45 0.35 1.35 c0.20 0.85 0.10 1.55 -0.35 2 -1.65 1.50 -25.30 2.25 -35.55 1.05z" data-index="126"></path>
  <path d="M206.15 124.70 c-1.40 -0.80 -2.15 -1.60 -2.15 -2.25 0 -0.75 -0.30 -1 -1.15 -0.85 -1.50 0.20 -12.75 -6.05 -13.90 -7.75 -0.15 -0.25 -0.45 -0.40 -0.60 -0.40 -0.20 0 -1.40 -0.45 -2.70 -1.05 -1.35 -0.60 -2.95 -1.15 -3.65 -1.20 -5.40 -0.55 -12.70 -0.05 -16.65 1.10 -3.15 0.85 -6.85 0.45 -6.85 -0.80 0 -0.75 0.70 -1 3.65 -1.50 1.95 -0.30 4.40 -0.80 5.35 -1.05 0.95 -0.25 4.10 -0.60 7 -0.75 4.50 -0.30 5.85 -0.20 9.25 0.75 4.55 1.25 7.45 2.85 7.05 3.85 -0.15 0.40 -0.05 0.70 0.15 0.70 0.25 0 0.55 -0.20 0.65 -0.45 0.10 -0.25 3.85 1.80 8.40 4.55 4.55 2.75 8.75 5.20 9.40 5.45 0.75 0.30 1.80 0.20 3.20 -0.30 3.30 -1.10 4.90 0.95 1.90 2.50 -2.30 1.20 -5.90 0.95 -8.35 -0.55z" data-index="127"></path>
  <path d="M254 125.15 c0 -0.25 -2.60 -0.45 -5.80 -0.45 -3.20 -0.05 -8.05 -0.35 -10.80 -0.70 -4.30 -0.55 -5.25 -0.85 -7.05 -2.20 -1.95 -1.45 -3.75 -4.20 -3.85 -5.65 0 -0.90 3.05 -0.80 4.40 0.15 0.60 0.40 1.10 1.30 1.10 1.95 0 0.95 0.40 1.30 1.90 1.75 4.85 1.35 10.70 2 17.35 1.95 6.60 -0.10 10.45 -0.10 26.60 -0.05 7.95 0.05 10.15 0.40 10.15 1.55 0 0.75 -1.30 0.90 -12.35 1.45 -14.05 0.70 -21.65 0.75 -21.65 0.25z" data-index="128"></path>
  <path d="M292.50 123 c0 -1.40 1.85 -2 6.75 -2.30 4.10 -0.25 5.60 0.15 5.10 1.45 -0.20 0.50 -1.70 0.90 -4.70 1.30 -6.40 0.80 -7.15 0.75 -7.15 -0.45z" data-index="129"></path>
  <path d="M142.65 115.65 c-1.40 -0.25 -1.60 -2.15 -0.25 -2.15 0.45 -0.05 3.25 -0.45 6.25 -0.95 l5.35 -0.85 0 1.35 c0 1.25 -0.25 1.40 -2.35 1.85 -3.20 0.70 -7.65 1.05 -9 0.75z" data-index="130"></path>
  <path d="M153.50 93.25 c-1.10 -1.35 -1 -1.40 9.15 -5.55 6.30 -2.60 7.35 -2.70 7.35 -0.95 0 0.70 -0.05 1.25 -0.15 1.25 -0.10 0 -3.50 1.35 -7.50 3 -4.05 1.65 -7.55 3 -7.80 3 -0.25 0 -0.70 -0.35 -1.05 -0.75z" data-index="131"></path>
  <path d="M186.15 52.20 c-0.40 -0.15 -0.65 -1.20 -0.65 -2.45 0 -1.85 0.25 -2.35 1.50 -3.25 3.25 -2.30 10.50 -4.40 10.50 -3.05 0 0.60 -1 1.40 -5.40 4.10 -5 3.10 -6.55 4.30 -3.85 3.05 3.15 -1.55 14.55 -5.10 16.20 -5.10 2.35 0 3.95 0.85 5.05 2.60 1.30 2.15 1.25 2.40 -0.45 2.40 -0.85 0 -1.70 -0.40 -2.10 -1 -1.05 -1.50 -2.20 -1.40 -8.45 0.70 -5.35 1.80 -10.90 2.70 -12.35 2z" data-index="132"></path>
  <path d="M222 45.70 c0 -2.50 4.45 -6.20 7.40 -6.20 0.60 0 1.50 -0.40 2.05 -0.95 0.95 -0.95 4.35 -1.50 10.95 -1.80 4.85 -0.25 4.35 -0.75 -0.70 -0.75 -5.20 0 -6.70 -0.35 -6.70 -1.40 0 -0.65 0.95 -0.70 7.15 -0.45 9.10 0.35 9.35 0.45 9.35 2.90 0 1.05 -0.30 2.05 -0.60 2.25 -0.35 0.25 -3.90 0.60 -7.90 0.80 -12 0.65 -14.90 1.50 -18.45 5.55 -0.95 1.10 -2.55 1.10 -2.55 0.05z" data-index="133"></path>
 </g>
 <g fill="#000000">
  <path d="M221.55 161.75 c-4 -0.90 -11.35 -3.30 -17.65 -5.80 -6.15 -2.50 -7.70 -2.50 -11.90 0 -8.10 4.85 -12.60 3.85 -16.35 -3.65 -0.95 -1.95 -1.85 -3.60 -1.90 -3.70 -0.10 -0.10 -2.30 -0.70 -5 -1.35 -3.05 -0.75 -6.45 -2.05 -9.15 -3.50 -3.85 -2.10 -4.60 -2.30 -6.65 -2.10 -1.35 0.20 -3.30 0.95 -4.75 1.80 -1.30 0.85 -2.80 1.55 -3.25 1.55 -1.25 0 -3.60 -2.50 -6.05 -6.45 -1.40 -2.35 -2.80 -3.85 -4.25 -4.75 -2.05 -1.20 -2.15 -1.40 -2.15 -3.60 0 -1.30 -0.15 -2.25 -0.30 -2.05 -0.40 0.35 -3 7.65 -4.45 12.40 -2.15 7.15 -3.10 8.10 -10.75 11.35 -7.40 3.10 -12.45 4.50 -22.45 6.25 -8.85 1.50 -9.90 1.60 -21.80 1.55 -15.80 -0.05 -21.45 -0.90 -36.40 -5.70 -11.85 -3.75 -13.85 -4.80 -17 -8.95 -3.55 -4.65 -5.40 -11.65 -7.70 -29.30 -1.10 -8.50 -1.25 -34.10 -0.20 -39.75 1.70 -9.50 5.30 -17.45 8.70 -19.25 1.20 -0.65 2.05 -1.55 2.40 -2.60 0.65 -2.10 3.90 -4.95 7.30 -6.50 3.35 -1.55 10.95 -2.90 20.45 -3.60 10.70 -0.85 41.70 -0.70 49 0.20 10.65 1.30 16.15 3.15 19.85 6.70 2.45 2.25 3.65 4.60 4.65 8.90 0.45 1.90 1.20 3.80 1.75 4.30 0.50 0.50 0.95 1.30 0.95 1.85 0 0.50 0.20 1.05 0.45 1.20 0.95 0.60 2.65 6.55 4.10 14.55 1.20 6.60 1.60 10.55 1.80 17.65 0.15 5.25 0.45 9 0.70 8.75 0.25 -0.25 0.65 -4.25 0.85 -8.95 0.30 -7.75 0.45 -8.45 1.30 -8.60 0.90 -0.20 0.95 0.10 0.65 7.20 -0.40 8.75 -0.95 11.80 -2.35 13.30 -1.20 1.30 -1.75 3.05 -1.30 4.20 0.25 0.65 0.45 0.70 1.05 0.20 0.40 -0.30 0.95 -0.45 1.20 -0.30 0.25 0.20 0.60 0.10 0.75 -0.15 0.35 -0.50 6.80 -1.75 7.15 -1.35 0.15 0.15 0.70 0.05 1.20 -0.25 0.80 -0.40 0.95 -0.30 0.95 0.55 0 1.40 1.15 1.30 5 -0.55 3.90 -1.90 8.55 -3 11.50 -2.70 1.20 0.15 2.45 0 2.85 -0.30 0.35 -0.30 0.65 -0.40 0.65 -0.20 0 0.25 0.45 0 1.05 -0.55 0.70 -0.65 1.10 -0.75 1.35 -0.35 0.25 0.40 0.65 0.45 1.10 0.15 0.45 -0.25 0.95 -0.25 1.35 0.10 0.50 0.40 1.20 0.40 2.60 -0.05 2.55 -0.75 2.85 -0.70 2.85 0.40 0 0.55 -0.30 0.90 -0.80 0.80 -0.40 -0.05 -1.40 0.10 -2.25 0.30 -1.45 0.40 -8.95 1.80 -17.50 3.25 -2.20 0.35 -5.85 1 -8.10 1.40 -2.25 0.40 -5.95 0.85 -8.25 1.05 -4.75 0.35 -6.30 0.95 -6.75 2.65 -0.20 0.85 0.10 1.60 1.20 2.75 2.05 2.20 2.25 2.95 1.10 4.80 -1.25 2.05 -1.20 2.85 0.30 4.35 0.70 0.70 1.25 1.45 1.25 1.65 0 0.80 1.85 2.05 3.45 2.35 1.25 0.25 2.05 1 3.60 3.25 2.10 3.10 2.65 3.40 4.20 2.25 0.85 -0.60 0.90 -0.95 0.35 -5.50 -0.65 -5 -0.55 -5.80 0.60 -5.80 0.45 0 0.80 0.95 1.05 2.75 0.15 1.50 0.60 2.90 0.90 3.10 0.30 0.20 3.65 0.30 7.40 0.20 6.05 -0.10 6.90 -0.05 7.70 0.80 0.65 0.65 1.65 0.90 3.45 0.85 1.55 0 2.80 0.25 3.25 0.65 1 1 3.20 0.60 3.85 -0.75 0.35 -0.75 0.40 -2 0.10 -3.85 -0.40 -2.50 -0.30 -2.95 1.10 -5.55 0.80 -1.55 1.50 -3.25 1.50 -3.75 0 -0.55 0.80 -1.85 1.80 -2.95 1 -1.05 1.65 -2.20 1.45 -2.50 -0.50 -0.80 1.25 -0.60 2.05 0.25 0.45 0.40 1.45 0.75 2.30 0.75 2.20 0 5.30 2.65 6.70 5.75 1.60 3.55 3.20 10 3.20 13.05 0 1.70 -0.45 3.50 -1.30 5.40 -2 4.35 -1 5.55 4.10 5 2.05 -0.25 2.60 -0.15 2.85 0.50 0.25 0.55 0.95 0.80 2.45 0.80 2.40 0 3.15 0.40 3.15 1.50 0 0.90 3 1.95 6.20 2.20 1.25 0.10 4.50 0.75 7.15 1.50 4.65 1.20 5.45 1.25 18 1.20 12.75 0 19.80 -0.50 20.40 -1.35 0.40 -0.60 10.90 -1.65 17.40 -1.75 3.40 -0.05 5.80 -0.30 6 -0.60 0.20 -0.30 3.85 -1.15 8.10 -1.90 6.70 -1.15 8.20 -1.60 10.95 -3.20 1.75 -1 3.45 -2.25 3.75 -2.70 0.70 -1.15 -0.05 -2.40 -1.85 -3.30 -0.75 -0.35 -1.35 -0.85 -1.35 -1.15 0 -0.25 -0.90 -0.45 -2 -0.45 -1.50 0 -2.15 -0.25 -2.75 -1.15 -0.40 -0.65 -1.65 -1.65 -2.75 -2.30 l-2 -1.10 3.35 -2.75 c1.90 -1.45 4.35 -3.15 5.50 -3.65 2.25 -1.05 3.15 -2.25 3.15 -4.25 0 -1.75 1.70 -1.75 2.80 -0.05 1.25 1.95 0.55 3.55 -2.20 4.95 -1.30 0.65 -3 1.90 -3.80 2.70 l-1.40 1.50 1.95 -0.25 c1.85 -0.25 2.10 -0.10 3.60 1.65 2.55 3.10 3.55 5.65 3.55 9 0 5.70 -3.95 9.40 -12.05 11.35 -7.10 1.75 -27.40 4.20 -48.45 5.85 -14.65 1.15 -21.90 1.20 -26.45 0.25z m-128.80 -8.45 c8.65 -1.30 11.85 -2.05 16.80 -3.85 l2.85 -1.05 -2.15 -4.55 c-1.15 -2.55 -2.65 -5.95 -3.30 -7.55 l-1.20 -2.95 -6.50 0.30 c-3.55 0.20 -9.65 0.70 -13.50 1.10 -11.70 1.25 -21.10 0.90 -36.45 -1.30 -3.80 -0.55 -7.15 -1.05 -7.40 -1.10 -0.45 -0.10 -4.30 11.20 -5.10 15 l-0.35 1.60 4.25 1.30 c5.80 1.75 14.65 3.70 19.25 4.25 7.35 0.85 23.50 0.25 32.80 -1.20z m94.15 -1.30 c3.45 -1.80 4 -2.50 3.75 -4.85 -0.15 -1.40 -0.55 -2.20 -1.10 -2.40 -1.45 -0.45 -2.15 -2.30 -2.85 -7.90 -0.90 -6.85 -2.35 -10.10 -4.45 -10.10 -1.95 0 -2.65 -1.30 -1.60 -2.95 2.80 -4.25 7.65 2.30 9.05 12.30 0.85 6.15 1.15 6.95 2.15 5.65 1 -1.45 0.80 -5.70 -0.60 -10.50 -1.55 -5.40 -2.75 -7.75 -4.75 -9.45 -4.70 -3.95 -8.85 2 -9.25 13.15 -0.10 3.55 0 4.45 0.80 5.55 0.55 0.70 1.05 2.35 1.15 3.80 0.15 2.45 1.65 6.10 3.20 7.85 1 1.10 2.20 1.10 4.50 -0.15z m-154.90 -5.70 c0 -0.35 0.65 -2.80 1.45 -5.45 3.20 -10.40 3.10 -9.85 2.15 -10.20 -0.45 -0.20 -2.10 -1.05 -3.60 -1.95 -5.10 -2.90 -4.80 -3.15 -5.20 3.90 -0.25 3.75 -0.70 7.15 -1.25 8.70 l-0.90 2.50 1.55 1.10 c2.90 2 5.80 2.70 5.80 1.40z m90.15 -4.60 l0.90 -2.55 -1.50 -2.40 c-0.85 -1.30 -1.90 -3.55 -2.35 -4.95 -1.50 -4.55 -1.25 -4.50 -5.10 -1.95 l-3.45 2.30 2.20 5.20 c1.20 2.90 2.65 6.15 3.25 7.20 l1.05 1.95 2.05 -1.15 c1.65 -0.90 2.20 -1.60 2.95 -3.65z m50.40 1.85 c-0.90 -0.60 -7 -1.75 -7.35 -1.40 -0.30 0.30 5.05 1.70 6.80 1.75 0.95 0.05 1.05 -0.05 0.55 -0.35z m-150.65 -47.75 l-0.15 -34.55 -1.35 2.75 c-1.85 3.90 -3.25 8.30 -4 12.55 -1 5.85 -0.85 30 0.25 38.70 1.25 9.60 2.65 17.45 3.70 20.75 l0.85 2.75 0.40 -4.20 c0.20 -2.30 0.35 -19.70 0.30 -38.75z m106.10 26.80 c1.20 -7.15 0.30 -27.65 -1.70 -38.85 -1.50 -8.30 -2.25 -11.45 -2.60 -11.10 -0.15 0.15 -0.80 11 -1.45 24.15 l-1.20 23.95 1.75 3.80 c0.95 2.10 1.70 4.10 1.70 4.40 0 0.35 0.25 1.10 0.60 1.70 0.55 1 0.65 0.90 1.45 -1.80 0.50 -1.65 1.15 -4.45 1.45 -6.25z m-45.10 7.35 c4.10 -0.35 7.75 -0.85 8.35 -1.20 0.55 -0.35 3.35 -0.80 6.25 -1 9.45 -0.55 12.75 -1.60 16 -5 1.75 -1.80 1.75 -1.90 2.10 -7.40 0.20 -3.10 0.50 -9.20 0.65 -13.60 0.65 -19.60 1.85 -34.90 2.80 -36.10 0.30 -0.35 0.65 -1.25 0.70 -2 0.05 -0.80 0.30 -1.80 0.50 -2.30 0.95 -2.25 -0.70 -5.95 -2.95 -6.65 -0.55 -0.20 -1.15 -0.50 -1.30 -0.70 -0.50 -0.65 -5.80 -2.90 -8.25 -3.45 -7.95 -1.75 -12.05 -2 -38 -2.10 -27.25 -0.15 -32.90 0.20 -34.75 2.05 -0.45 0.45 -1.10 0.70 -1.45 0.60 -0.90 -0.30 -3.65 1.15 -5.30 2.90 l-1.45 1.50 -0.05 22.65 c-0.05 12.40 0 26.90 0.15 32.15 l0.25 9.55 1.45 0.55 c0.85 0.30 1.35 0.75 1.20 1 -0.45 0.75 1.35 2 3.45 2.35 1.10 0.20 2.70 0.65 3.55 1.05 2.15 0.95 7.15 2.20 8.80 2.20 0.75 0 1.40 0.25 1.40 0.55 0 0.30 0.30 0.45 0.70 0.30 0.40 -0.15 0.80 -0.05 0.90 0.20 0.10 0.30 1.95 0.80 4.05 1.10 3.15 0.45 4 0.45 4.30 -0.10 0.30 -0.45 0.80 -0.55 1.60 -0.25 0.65 0.20 1.35 0.35 1.60 0.30 0.20 -0.05 0.35 0.10 0.35 0.35 0 1.05 11.65 1.30 22.40 0.50z" data-index="134" style="opacity: 1;"></path>
  <path d="M232.10 142.55 c-0.50 -0.30 -0.35 -0.50 0.60 -0.65 0.90 -0.20 1.30 -0.05 1.30 0.40 0 0.80 -0.90 0.90 -1.90 0.25z" data-index="135"></path>
  <path d="M219.05 141.95 c-0.65 -0.25 -2.25 -0.50 -3.55 -0.60 -1.45 -0.05 -2.30 -0.30 -2.10 -0.60 0.15 -0.25 -0.05 -0.20 -0.50 0.10 -0.85 0.75 -1.40 0.40 -1.40 -0.95 0 -1.10 -0.25 -1.10 4.10 0.10 2 0.55 4.15 1 4.80 1 0.70 0 1.10 0.25 1 0.60 -0.30 0.80 -0.95 0.90 -2.35 0.35z" data-index="136"></path>
  <path d="M229.65 136.40 c-2.70 -0.35 -3.80 -0.75 -4.70 -1.70 -0.90 -0.95 -1 -1.30 -0.50 -1.90 0.35 -0.40 0.50 -1 0.30 -1.35 -0.30 -0.40 -0.50 -0.35 -0.80 0.10 -0.30 0.50 -0.45 0.30 -0.45 -0.65 0 -0.80 0.55 -1.90 1.40 -2.75 0.80 -0.75 1.65 -1.85 1.95 -2.40 0.55 -0.95 0.60 -0.95 1.50 0.20 0.85 1.05 1.80 1.30 7.60 2.10 l6.60 0.85 2.70 2.55 c1.50 1.40 3 2.55 3.40 2.55 0.75 0 1.60 1.40 1.15 1.85 -1.10 1.15 -13.20 1.45 -20.15 0.55z m13.95 -2.65 c0.25 -1.50 -6.30 -3.85 -13.95 -5.05 l-2.15 -0.35 0 1.80 c0 2.25 1.20 3.15 5 3.80 3.50 0.60 11 0.45 11.10 -0.20z" data-index="137"></path>
  <path d="M141.20 131.60 c0.10 -1.75 0.35 -3.30 0.50 -3.45 0.50 -0.50 0.25 4.50 -0.25 5.60 -0.30 0.70 -0.35 0 -0.25 -2.15z" data-index="138"></path>
  <path d="M208 125.60 c0 -0.20 -0.60 -0.75 -1.35 -1.20 -1.25 -0.75 -1.30 -0.85 -0.50 -1.20 0.50 -0.20 1.40 -0.05 2 0.25 0.85 0.45 1.65 0.40 3.60 -0.20 3.10 -0.90 3.75 -0.95 3.75 -0.05 0 0.40 -0.80 0.80 -1.95 1 -1.10 0.15 -2.30 0.65 -2.75 1.05 -0.75 0.80 -2.80 1.05 -2.80 0.35z" data-index="139"></path>
  <path d="M251.90 124.40 c-0.15 -0.35 -2.40 -0.70 -6.45 -0.95 -5.75 -0.35 -8.35 -0.75 -13.05 -2 -1.55 -0.40 -1.90 -0.70 -1.90 -1.70 0 -1.30 -1.65 -2.75 -3.10 -2.75 -0.50 0 -0.90 -0.10 -0.90 -0.20 0 -0.15 -0.35 -1.80 -0.70 -3.65 -1.45 -6.75 -3.65 -37 -4 -54.40 -0.20 -10.15 -0.10 -12.25 0.55 -13.60 0.40 -0.90 0.90 -1.65 1.10 -1.65 0.15 0 1.30 -0.90 2.55 -2 1.55 -1.40 2.55 -1.95 3.25 -1.80 0.55 0.15 1.90 0 3 -0.25 1.10 -0.30 5.30 -0.70 9.40 -0.90 6.65 -0.30 9.20 -0.90 8.25 -1.80 -1.25 -1.25 -28.10 -1.90 -33.75 -0.80 -4.15 0.80 -10.40 3.35 -15.75 6.45 -2.45 1.40 -4.40 2.45 -4.40 2.35 0 -0.40 -6.10 2.25 -7.45 3.20 -1.25 0.90 -2.65 4 -1.50 3.25 0.25 -0.15 1.40 -0.35 2.55 -0.50 2.35 -0.30 10.90 -2.95 13.05 -4.05 1.80 -0.90 4.45 -0.15 6.45 1.85 2.55 2.55 4.85 14.45 5.85 30.25 0.30 4.40 0.75 11.80 1.05 16.40 0.30 4.65 0.40 9.65 0.25 11.10 -0.25 1.95 -0.15 3 0.50 4.20 0.95 1.90 0.65 3.30 -1.05 4.35 -1.10 0.75 -1.30 0.75 -2.45 0 -0.65 -0.45 -1.55 -1.45 -1.95 -2.25 -0.65 -1.20 -1.25 -1.50 -3.90 -2 -5 -1 -10.20 -3.45 -13.25 -6.20 -3.25 -3 -7.25 -8.95 -10.90 -16.35 -2.15 -4.30 -1.60 -4.20 -8.55 -1.80 -4.55 1.60 -6.20 2 -6.20 1.50 0 -0.40 -0.45 -0.70 -1 -0.70 -1 0 -10.70 4.70 -12.10 5.90 -0.90 0.75 -2.40 0.50 -2.40 -0.40 0 -0.25 1.10 -1.05 2.40 -1.70 2.95 -1.50 17.80 -7.35 21.65 -8.55 l2.80 -0.90 0.30 -7.85 c0.30 -7.45 0.10 -11.50 -0.60 -11.50 -0.15 0 -2.55 1.45 -5.30 3.15 l-5 3.15 0 6.50 c0 5.40 -0.10 6.45 -0.75 6.45 -0.60 0 -0.80 -1.10 -1.10 -5.40 -0.15 -3 -0.45 -5.55 -0.55 -5.65 -0.15 -0.15 -1.90 0.75 -3.90 2 l-3.65 2.20 -0.05 5.45 c0 4.45 -0.15 5.40 -0.75 5.40 -0.60 0 -0.80 -0.90 -0.90 -4.60 -0.05 -2.55 -0.35 -4.65 -0.60 -4.65 -0.20 0 -1.10 0.40 -1.95 0.90 -1.45 0.80 -1.65 0.80 -3.05 0 -1.40 -0.80 -1.55 -0.80 -3.50 0.25 -1.85 1 -2.10 1.05 -3.35 0.35 -1.90 -1.05 -2.55 -3.05 -1.50 -4.65 1.05 -1.65 12.90 -10 32.60 -23.10 24.25 -16.10 30.25 -19.25 39.75 -20.75 4.10 -0.65 15.45 -0.65 23.25 0 17.15 1.40 26.60 2.70 40.85 5.50 6.50 1.30 7.80 1.75 8.80 2.80 1.15 1.35 1.35 2.50 0.65 3.65 -0.35 0.55 0.05 1.35 1.45 2.95 1.65 1.85 5 8.55 5 10 0 0.25 2 0.65 4.50 0.80 4.15 0.35 4.55 0.50 5.70 1.85 1.65 1.90 3.30 7.35 3.30 10.65 0 3.65 -1.40 11.85 -2.25 13.15 -0.40 0.60 -1.20 1.25 -1.80 1.40 -0.85 0.30 -1 0.60 -0.75 1.90 1 5.80 2.30 19.55 2.30 24.60 0 6.75 -1 12.50 -2.45 13.90 -0.75 0.80 -1.10 0.85 -2.05 0.35 -1.30 -0.70 -5.55 -0.25 -7.75 0.85 -1.75 0.85 -9.15 1.35 -10 0.65 -0.60 -0.50 -9.40 -0.30 -10.80 0.25 -0.45 0.15 -2 -0.05 -3.45 -0.55 -2.15 -0.70 -3.65 -0.80 -8.60 -0.50 -3.35 0.20 -6.80 0.65 -7.75 1.05 -2.15 0.90 -2 0.90 -2.25 0.15z m27.85 -5.70 c8.55 -0.40 16.60 -0.90 18 -1.10 3.05 -0.45 3.10 -0.65 3.20 -9.35 0.15 -15.50 -3.75 -35 -10.50 -52.25 -3.05 -7.95 -4.45 -9.65 -8.55 -10.45 -6 -1.20 -21.55 -2.20 -35.15 -2.25 -13.90 -0.05 -14 -0.05 -15.10 1.10 -0.65 0.60 -1.45 1.10 -1.80 1.10 -0.40 0 -1.10 0.45 -1.60 1 -0.80 0.90 -0.85 1.90 -0.55 13.85 0.35 12.60 2.30 41.20 3.35 48.35 1.10 7.75 1.70 8.60 6.75 9.35 10.45 1.55 20.85 1.70 41.95 0.65z m-69.40 -18.80 c-1.30 -24.25 -1.90 -31 -3.40 -39.30 -1.15 -5.95 -1.65 -6.85 -3.60 -5.65 -0.65 0.45 -1.15 0.45 -1.50 0.10 -0.80 -0.80 0.05 -2.05 1.65 -2.40 0.90 -0.15 1.35 -0.50 1.15 -0.70 -0.80 -0.80 -12 2.95 -17.70 5.80 -2.45 1.25 -2.50 1.35 -2.10 2.90 0.20 0.90 0.35 5.70 0.25 10.75 l-0.10 9.10 2.05 4.15 c3.20 6.45 7.20 12.95 9.15 14.95 3.05 3.15 9.60 6.30 13.25 6.35 l1.20 0.05 -0.30 -6.10z m92.05 -32.50 c-0.15 -2.25 -0.65 -4.55 -1.35 -6.10 -0.70 -1.50 -1 -2.90 -0.85 -3.60 0.30 -1.05 0.15 -1.20 -1.25 -1.20 -1.85 0 -1.90 -0.55 0.90 8.35 1.05 3.40 2.10 6.15 2.35 6.15 0.25 0 0.30 -1.65 0.20 -3.60z" data-index="140" style="opacity: 1;"></path>
  <path d="M252 116.50 c-7.50 -0.60 -8.10 -0.75 -7.90 -2.15 0.15 -1.10 0.25 -1.10 6.65 -0.85 14.20 0.55 32.30 0.20 37.85 -0.70 3 -0.45 5.60 -0.70 5.90 -0.55 0.80 0.50 0.60 2.10 -0.30 2.45 -0.45 0.20 -2.90 0.65 -5.40 1.10 -5.45 0.95 -28.10 1.35 -36.80 0.70z" data-index="141"></path>
  <path d="M264.75 93.50 c-1.25 -1.40 -0.65 -3.05 1.60 -4.25 1.05 -0.55 2.60 -2.05 3.50 -3.45 0.85 -1.35 2.25 -3.15 3.10 -4 l1.55 -1.60 -1.50 -1.45 c-0.85 -0.80 -2.20 -2.55 -3.05 -3.80 -0.80 -1.30 -2.15 -2.60 -2.95 -2.95 -2.15 -0.90 -3.15 -2.25 -2.80 -3.70 0.80 -3.15 6.05 -1.60 8.95 2.55 0.85 1.30 2.15 3 2.85 3.75 l1.25 1.45 2.50 -3.40 c4.15 -5.65 9.20 -7.80 10.05 -4.35 0.30 1.15 -0.05 1.65 -2.65 3.95 -1.65 1.50 -3.85 3.90 -4.85 5.40 l-1.90 2.75 2.25 3.20 c1.25 1.75 3.20 4 4.30 5.05 1.15 1.05 2.05 2.30 2.05 2.80 0 1.10 -1.50 2.55 -2.70 2.55 -1.15 0 -4.85 -3.50 -7.10 -6.75 -1.80 -2.65 -1.90 -2.70 -2.80 -1.90 -0.50 0.45 -1.40 1.65 -2 2.60 -1.60 2.70 -3.95 5.05 -5.85 5.85 -2.20 0.95 -2.70 0.90 -3.80 -0.30z" data-index="142"></path>
  <path d="M257.50 93.65 c-1.30 -0.50 -3.05 -2.35 -4.05 -4.25 -1.20 -2.35 -2.25 -2.90 -5.40 -2.90 l-2.55 0 0 2.40 c0 2.65 -0.25 3.20 -1.85 4.05 -1.30 0.65 -3.35 0.05 -3.85 -1.20 -0.15 -0.45 -0.30 -5.15 -0.30 -10.40 0 -10.55 0.20 -11.35 2.95 -13.20 1.45 -0.95 2.35 -1.15 5.95 -1.15 3.65 0 4.60 0.20 7.45 1.55 3.40 1.65 4.75 3.15 5.70 6.60 0.75 2.80 0.05 5.15 -2.30 8.10 l-2.15 2.65 0.90 1.40 c0.50 0.80 1.35 1.85 1.95 2.30 1.30 1.10 1.35 2.45 0.15 3.55 -0.95 0.90 -1.35 0.95 -2.60 0.50z m-3.05 -13.90 c1.75 -2 1.80 -2.20 1 -3.90 -0.80 -1.75 -3.50 -2.85 -6.95 -2.85 l-3 0 0 4.25 0 4.25 3.70 0 c3.60 0 3.75 -0.05 5.25 -1.75z" data-index="143"></path>
  <path d="M205 86.70 c-0.85 -2.20 -0.85 -4.45 0 -4.45 0.85 0 2.25 3.85 1.80 5 -0.40 1.15 -1.25 0.90 -1.80 -0.55z" data-index="144"></path>
  <path d="M200 119.45 c-3.05 -2.10 -7.75 -4.45 -8.90 -4.45 -0.50 0 -1.90 -0.65 -3.15 -1.45 -1.25 -0.85 -3.55 -1.75 -5.30 -2.05 -1.75 -0.35 -3.15 -0.80 -3.15 -0.95 0 -0.45 3.05 -1.55 4.35 -1.55 0.60 0 1.75 0.70 2.60 1.55 1.10 1.10 1.85 1.45 2.55 1.20 0.70 -0.25 1.75 0.20 3.40 1.40 1.30 0.95 3.60 2.30 5.10 3.05 1.50 0.75 2.85 1.55 3 1.70 0.15 0.20 0.90 0.70 1.70 1.10 0.80 0.40 1.55 1.05 1.70 1.40 0.35 1.10 -1.60 0.60 -3.90 -0.95z" data-index="145"></path>
 </g>
</svg>